<svg xmlns:xlink="http://www.w3.org/1999/xlink" xmlns="http://www.w3.org/2000/svg" version="1.1" viewBox="0.0 0.0 96.0 96.0" fill="none" stroke="none" stroke-linecap="square" stroke-miterlimit="10"><clipPath id="p.0"><path d="m0 0l96.0 0l0 96.0l-96.0 0l0 -96.0z" clip-rule="nonzero"/></clipPath><g clip-path="url(#p.0)"><path fill="#000000" fill-opacity="0.0" d="m0 0l96.0 0l0 96.0l-96.0 0z" fill-rule="evenodd"/><path fill="#1b1b1b" d="m0 -0.1496063l96.0 0l0 96.0l-96.0 0z" fill-rule="evenodd"/><path fill="#adadad" d="m5.727034 28.713911l0 0c0 -5.2880173 4.2867856 -9.574804 9.574802 -9.574804l0 0c2.5393953 0 4.974784 1.0087719 6.7704077 2.8043957c1.7956257 1.7956238 2.8043957 4.2310123 2.8043957 6.7704086l0 0c0 5.288019 -4.286785 9.574804 -9.574803 9.574804l0 0c-5.2880173 0 -9.574802 -4.286785 -9.574802 -9.574804z" fill-rule="evenodd"/><path fill="#adadad" d="m27.88189 22.656185l0 0c0 -0.4841652 0.3924942 -0.8766575 0.8766575 -0.8766575l32.45141 0c0.23250198 0 0.4554863 0.09236145 0.6198883 0.25676727c0.16440582 0.16440582 0.25676727 0.38738632 0.25676727 0.6198902l0 3.506527c0 0.4841652 -0.3924904 0.8766575 -0.8766556 0.8766575l-32.45141 0c-0.48416328 0 -0.8766575 -0.3924923 -0.8766575 -0.8766575z" fill-rule="evenodd"/><path fill="#ffffff" d="m27.88189 31.265892l0 0c0 -0.4841652 0.3924942 -0.8766575 0.8766575 -0.8766575l58.53015 0c0.2325058 0 0.45548248 0.09236145 0.6198883 0.25676727c0.16440582 0.16440392 0.25676727 0.38738632 0.25676727 0.6198902l0 3.506527c0 0.4841652 -0.3924942 0.8766594 -0.8766556 0.8766594l-58.53015 0c-0.48416328 0 -0.8766575 -0.3924942 -0.8766575 -0.8766594z" fill-rule="evenodd"/><path fill="#adadad" d="m5.727034 45.204742l0 0c0 -0.4841652 0.39249325 -0.8766594 0.87665796 -0.8766594l34.876606 0c0.2325058 0 0.4554863 0.09236145 0.6198921 0.25676727c0.16440582 0.16440582 0.25676727 0.38738632 0.25676727 0.6198921l0 3.506527c0 0.4841652 -0.3924942 0.8766556 -0.8766594 0.8766556l-34.876606 0c-0.4841647 0 -0.87665796 -0.3924904 -0.87665796 -0.8766556z" fill-rule="evenodd"/><path fill="#adadad" d="m51.540684 45.204742l0 0c0 -0.4841652 0.3924904 -0.8766594 0.8766556 -0.8766594l34.876606 0c0.2325058 0 0.45548248 0.09236145 0.6198883 0.25676727c0.16440582 0.16440582 0.25676727 0.38738632 0.25676727 0.6198921l0 3.506527c0 0.4841652 -0.39248657 0.8766556 -0.8766556 0.8766556l-34.876606 0c-0.4841652 0 -0.8766556 -0.3924904 -0.8766556 -0.8766556z" fill-rule="evenodd"/><path fill="#adadad" d="m5.727034 55.178493l0 0c0 -0.48416138 0.39249325 -0.8766556 0.87665796 -0.8766556l34.876606 0c0.2325058 0 0.4554863 0.09236145 0.6198921 0.25676727c0.16440582 0.16440582 0.25676727 0.38738632 0.25676727 0.6198883l0 3.506527c0 0.4841652 -0.3924942 0.8766594 -0.8766594 0.8766594l-34.876606 0c-0.4841647 0 -0.87665796 -0.3924942 -0.87665796 -0.8766594z" fill-rule="evenodd"/><path fill="#adadad" d="m51.540684 55.178493l0 0c0 -0.48416138 0.3924904 -0.8766556 0.8766556 -0.8766556l34.876606 0c0.2325058 0 0.45548248 0.09236145 0.6198883 0.25676727c0.16440582 0.16440582 0.25676727 0.38738632 0.25676727 0.6198883l0 3.506527c0 0.4841652 -0.39248657 0.8766594 -0.8766556 0.8766594l-34.876606 0c-0.4841652 0 -0.8766556 -0.3924942 -0.8766556 -0.8766594z" fill-rule="evenodd"/><path fill="#ffffff" d="m5.727034 71.942276l0 0c0 -0.484169 0.39249325 -0.8766556 0.87665796 -0.8766556l80.67188 0c0.2325058 0 0.45548248 0.09236145 0.6198883 0.25676727c0.16440582 0.1643982 0.25676727 0.3873825 0.25676727 0.6198883l0 3.5065231c0 0.484169 -0.3924942 0.8766632 -0.8766556 0.8766632l-80.67188 0c-0.4841647 0 -0.87665796 -0.3924942 -0.87665796 -0.8766632z" fill-rule="evenodd"/></g></svg>