<svg xmlns:xlink="http://www.w3.org/1999/xlink" xmlns="http://www.w3.org/2000/svg" version="1.1" viewBox="0.0 0.0 96.0 96.0" fill="none" stroke="none" stroke-linecap="square" stroke-miterlimit="10"><clipPath id="p.0"><path d="m0 0l96.0 0l0 96.0l-96.0 0l0 -96.0z" clip-rule="nonzero"/></clipPath><g clip-path="url(#p.0)"><path fill="#000000" fill-opacity="0.0" d="m0 0l96.0 0l0 96.0l-96.0 0z" fill-rule="evenodd"/><path fill="#1b1b1b" d="m4.3700786 11.553944l0 0c0 -3.800839 3.0811887 -6.8820276 6.882027 -6.8820276l27.527283 0l0 0c1.8252296 0 3.5756989 0.72506857 4.866329 2.0156994c1.2906303 1.2906303 2.0157013 3.0411005 2.0157013 4.8663282l0 27.716259c0 3.8008385 -3.081192 6.8820267 -6.8820305 6.8820267l-27.527283 0l0 0c-3.8008385 0 -6.882027 -3.0811882 -6.882027 -6.8820267z" fill-rule="evenodd"/><path fill="#ffffff" d="m19.8379 35.01207l0 -3.171873l3.6875 0l0 -9.78125l-3.171875 0l0 -2.421875q1.390625 -0.265625 2.34375 -0.640625q0.953125 -0.375 1.859375 -0.90625l2.890625 0l0 13.75l3.171875 0l0 3.171873l-10.78125 0z" fill-rule="nonzero"/><path fill="#000000" fill-opacity="0.0" d="m51.574806 12.798026l0 0c0 -3.4616337 2.8062057 -6.2678423 6.2678413 -6.2678423l25.070614 0l0 0c1.6623383 0 3.2565842 0.66035986 4.4320374 1.8358088c1.1754456 1.1754475 1.8358078 2.7696981 1.8358078 4.4320335l0 25.228096c0 3.4616318 -2.8062134 6.2678413 -6.267845 6.2678413l-25.070614 0l0 0c-3.4616356 0 -6.2678413 -2.8062096 -6.2678413 -6.2678413z" fill-rule="evenodd"/><path stroke="#666666" stroke-width="4.0" stroke-linejoin="round" stroke-linecap="butt" d="m51.574806 12.798026l0 0c0 -3.4616337 2.8062057 -6.2678423 6.2678413 -6.2678423l25.070614 0l0 0c1.6623383 0 3.2565842 0.66035986 4.4320374 1.8358088c1.1754456 1.1754475 1.8358078 2.7696981 1.8358078 4.4320335l0 25.228096c0 3.4616318 -2.8062134 6.2678413 -6.267845 6.2678413l-25.070614 0l0 0c-3.4616356 0 -6.2678413 -2.8062096 -6.2678413 -6.2678413z" fill-rule="evenodd"/><path fill="#005ea2" d="m64.3251 35.01207l0 -2.234375q1.625 -1.5312481 2.96875 -2.843748q1.34375 -1.3125 2.3125 -2.46875q0.984375 -1.171875 1.53125 -2.171875q0.546875 -1.0 0.546875 -1.90625q0 -1.25 -0.640625 -1.90625q-0.640625 -0.65625 -1.765625 -0.65625q-0.921875 0 -1.640625 0.53125q-0.71875 0.515625 -1.359375 1.203125l-2.140625 -2.09375q1.25 -1.34375 2.5625 -2.015625q1.3125 -0.6875 3.125 -0.6875q1.25 0 2.265625 0.390625q1.03125 0.390625 1.78125 1.09375q0.75 0.703125 1.140625 1.6875q0.40625 0.984375 0.40625 2.21875q0 1.0625 -0.453125 2.171875q-0.453125 1.109375 -1.21875 2.21875q-0.75 1.09375 -1.734375 2.203125q-0.96875 1.109375 -2.015625 2.171875q0.640625 -0.078125 1.421875 -0.140625q0.796875 -0.078125 1.40625 -0.078125l3.421875 0l0 3.312498l-11.921875 0z" fill-rule="nonzero"/><path fill="#000000" fill-opacity="0.0" d="m6.2125983 57.93422l0 0c0 -3.4616318 2.8062081 -6.2678413 6.267842 -6.2678413l25.070616 0l0 0c1.6623344 0 3.2565842 0.6603584 4.4320335 1.8358078c1.1754494 1.1754494 1.8358078 2.769699 1.8358078 4.4320335l0 25.25959c0 3.4616318 -2.8062096 6.267845 -6.2678413 6.267845l-25.070616 0l0 0c-3.4616337 0 -6.267842 -2.8062134 -6.267842 -6.267845z" fill-rule="evenodd"/><path stroke="#666666" stroke-width="4.0" stroke-linejoin="round" stroke-linecap="butt" d="m6.2125983 57.93422l0 0c0 -3.4616318 2.8062081 -6.2678413 6.267842 -6.2678413l25.070616 0l0 0c1.6623344 0 3.2565842 0.6603584 4.4320335 1.8358078c1.1754494 1.1754494 1.8358078 2.769699 1.8358078 4.4320335l0 25.25959c0 3.4616318 -2.8062096 6.267845 -6.2678413 6.267845l-25.070616 0l0 0c-3.4616337 0 -6.267842 -2.8062134 -6.267842 -6.267845z" fill-rule="evenodd"/><path fill="#005ea2" d="m24.4629 80.47652q-2.09375 0 -3.53125 -0.640625q-1.4375 -0.65625 -2.359375 -1.75l1.8125 -2.484375q0.765625 0.75 1.6875 1.234375q0.921875 0.46875 2.015625 0.46875q1.25 0 1.984375 -0.515625q0.75 -0.515625 0.75 -1.46875q0 -0.5625 -0.203125 -1.015625q-0.1875 -0.453125 -0.703125 -0.765625q-0.5 -0.3125 -1.390625 -0.484375q-0.875 -0.171875 -2.25 -0.171875l0 -2.765625q1.140625 0 1.890625 -0.15625q0.765625 -0.171875 1.234375 -0.46875q0.46875 -0.3125 0.671875 -0.71875q0.203125 -0.421875 0.203125 -0.921875q0 -0.875 -0.546875 -1.375q-0.53125 -0.5 -1.546875 -0.5q-0.90625 0 -1.640625 0.40625q-0.71875 0.40625 -1.53125 1.09375l-1.96875 -2.40625q1.171875 -1.0 2.46875 -1.5781288q1.296875 -0.578125 2.859375 -0.578125q1.3125 0 2.390625 0.3125q1.078125 0.296875 1.828125 0.9062538q0.765625 0.59375 1.1875 1.453125q0.4375 0.84375 0.4375 1.96875q0 1.328125 -0.734375 2.25q-0.734375 0.921875 -2.09375 1.515625l0 0.09375q1.46875 0.4375 2.40625 1.46875q0.953125 1.015625 0.953125 2.671875q0 1.171875 -0.515625 2.09375q-0.5 0.921875 -1.359375 1.546875q-0.84375 0.625 -2.0 0.953125q-1.140625 0.328125 -2.40625 0.328125z" fill-rule="nonzero"/><path fill="#000000" fill-opacity="0.0" d="m49.732285 54.698162l41.291336 0l0 36.629925l-41.291336 0z" fill-rule="evenodd"/><path fill="#005ea2" d="m56.045494 80.45687l0 -3.6875l9.140625 -3.59375l-9.140625 -3.546875l0 -3.65625l13.09375 5.65625l0 3.125l-13.09375 5.703125zm15.5668335 0l0 -3.6875l9.140625 -3.59375l-9.140625 -3.546875l0 -3.65625l13.09375 5.65625l0 3.125l-13.09375 5.703125z" fill-rule="nonzero"/><path fill="#ff00ff" d="m108.2021 42.43832l50.04724 0l0 48.000004l-50.04724 0z" fill-rule="evenodd"/><path fill="#ffffff" d="m115.01262 77.478325l0 -21.937504l16.265625 0l0 3.703125l-11.84375 0l0 4.859379l11.015625 0l0 3.703125l-11.015625 0l0 5.96875l12.265625 0l0 3.703125l-16.6875 0zm18.213104 0l7.5 -11.453125l-6.796875 -10.484379l5.171875 0l4.40625 7.046875l4.3125 -7.046875l5.140625 0l-6.828125 10.656254l7.5 11.28125l-5.34375 0l-4.875 -7.59375l-4.875 7.59375l-5.3125 0z" fill-rule="nonzero"/></g></svg>