<svg xmlns:xlink="http://www.w3.org/1999/xlink" xmlns="http://www.w3.org/2000/svg" version="1.1" viewBox="0.0 0.0 96.0 96.0" fill="none" stroke="none" stroke-linecap="square" stroke-miterlimit="10"><clipPath id="p.0"><path d="m0 0l96.0 0l0 96.0l-96.0 0l0 -96.0z" clip-rule="nonzero"/></clipPath><g clip-path="url(#p.0)"><path fill="#000000" fill-opacity="0.0" d="m0 0l96.0 0l0 96.0l-96.0 0z" fill-rule="evenodd"/><path fill="#1b1b1b" d="m9.795276 15.422694l0 0c0 -3.3572626 2.7215986 -6.078862 6.078861 -6.078862l24.314716 0l0 0c1.6122131 0 3.1583977 0.6404495 4.2984047 1.7804575c1.140007 1.140008 1.7804565 2.6861897 1.7804565 4.2984047l0 24.472195c0 3.3572655 -2.7215996 6.078865 -6.078861 6.078865l-24.314716 0l0 0c-3.3572626 0 -6.078861 -2.7215996 -6.078861 -6.078865z" fill-rule="evenodd"/><path stroke="#1b1b1b" stroke-width="1.0" stroke-linejoin="round" stroke-linecap="butt" d="m9.795276 15.422694l0 0c0 -3.3572626 2.7215986 -6.078862 6.078861 -6.078862l24.314716 0l0 0c1.6122131 0 3.1583977 0.6404495 4.2984047 1.7804575c1.140007 1.140008 1.7804565 2.6861897 1.7804565 4.2984047l0 24.472195c0 3.3572655 -2.7215996 6.078865 -6.078861 6.078865l-24.314716 0l0 0c-3.3572626 0 -6.078861 -2.7215996 -6.078861 -6.078865z" fill-rule="evenodd"/><path fill="#ffffff" d="m24.864168 34.578793l0 -1.265625l2.734377 0l0 -8.765627l-2.171877 0l0 -1.0q0.828125 -0.140625 1.421875 -0.359375q0.609375 -0.21875 1.0937519 -0.515625l1.1875 0l0 10.640627l2.453125 0l0 1.265625l-6.718752 0z" fill-rule="nonzero"/><path fill="#000000" fill-opacity="0.0" d="m49.732285 15.422694l0 0c0 -3.3572626 2.7215996 -6.078862 6.078861 -6.078862l24.314716 0l0 0c1.6122131 0 3.1583939 0.6404495 4.2984085 1.7804575c1.140007 1.140008 1.7804565 2.6861897 1.7804565 4.2984047l0 24.472195c0 3.3572655 -2.7216034 6.078865 -6.078865 6.078865l-24.314716 0l0 0c-3.3572617 0 -6.078861 -2.7215996 -6.078861 -6.078865z" fill-rule="evenodd"/><path stroke="#d9d9d9" stroke-width="1.0" stroke-linejoin="round" stroke-linecap="butt" d="m49.732285 15.422694l0 0c0 -3.3572626 2.7215996 -6.078862 6.078861 -6.078862l24.314716 0l0 0c1.6122131 0 3.1583939 0.6404495 4.2984085 1.7804575c1.140007 1.140008 1.7804565 2.6861897 1.7804565 4.2984047l0 24.472195c0 3.3572655 -2.7216034 6.078865 -6.078865 6.078865l-24.314716 0l0 0c-3.3572617 0 -6.078861 -2.7215996 -6.078861 -6.078865z" fill-rule="evenodd"/><path fill="#005ea2" d="m64.08243 34.578793l0 -0.921875q1.34375 -1.328125 2.375 -2.406252q1.046875 -1.09375 1.75 -2.015625q0.71875 -0.921875 1.09375 -1.6875q0.375 -0.78125 0.375 -1.515625q0 -1.03125 -0.5625 -1.671875q-0.5625 -0.65625 -1.703125 -0.65625q-0.734375 0 -1.375 0.421875q-0.625 0.421875 -1.15625 1.015625l-0.875 -0.875q0.75 -0.828125 1.578125 -1.3125q0.84375 -0.5 2.015625 -0.5q1.671875 0 2.609375 0.96875q0.953125 0.953125 0.953125 2.53125q0 0.84375 -0.359375 1.703125q-0.359375 0.84375 -1.0 1.75q-0.640625 0.90625 -1.53125 1.890625q-0.890625 0.9687519 -1.953125 2.062502q0.484375 -0.03125 1.0 -0.0625q0.53125 -0.046875 1.0 -0.046875l3.453125 0l0 1.328125l-7.6875 0z" fill-rule="nonzero"/><path fill="#000000" fill-opacity="0.0" d="m9.795276 56.10511l0 0c0 -3.3572655 2.7215986 -6.078865 6.078861 -6.078865l24.314716 0l0 0c1.6122131 0 3.1583977 0.6404495 4.2984047 1.7804604c1.140007 1.140007 1.7804565 2.6861877 1.7804565 4.2984047l0 24.472198c0 3.3572617 -2.7215996 6.0788574 -6.078861 6.0788574l-24.314716 0l0 0c-3.3572626 0 -6.078861 -2.7215958 -6.078861 -6.0788574z" fill-rule="evenodd"/><path stroke="#d9d9d9" stroke-width="1.0" stroke-linejoin="round" stroke-linecap="butt" d="m9.795276 56.10511l0 0c0 -3.3572655 2.7215986 -6.078865 6.078861 -6.078865l24.314716 0l0 0c1.6122131 0 3.1583977 0.6404495 4.2984047 1.7804604c1.140007 1.140007 1.7804565 2.6861877 1.7804565 4.2984047l0 24.472198c0 3.3572617 -2.7215996 6.0788574 -6.078861 6.0788574l-24.314716 0l0 0c-3.3572626 0 -6.078861 -2.7215958 -6.078861 -6.0788574z" fill-rule="evenodd"/><path fill="#005ea2" d="m27.80167 75.47996q-0.7187519 0 -1.3125019 -0.140625q-0.578125 -0.140625 -1.0625 -0.359375q-0.484375 -0.234375 -0.875 -0.53125q-0.375 -0.3125 -0.671875 -0.640625l0.78125 -1.015625q0.546875 0.5625 1.265625 1.0q0.71875 0.421875 1.7812519 0.421875q1.078125 0 1.765625 -0.578125q0.6875 -0.59375 0.6875 -1.609375q0 -0.515625 -0.203125 -0.953125q-0.1875 -0.4375 -0.640625 -0.75q-0.4375 -0.328125 -1.171875 -0.484375q-0.7187519 -0.171875 -1.7812519 -0.171875l0 -1.171875q0.953125 0 1.5937519 -0.171875q0.640625 -0.171875 1.03125 -0.46875q0.40625 -0.296875 0.578125 -0.703125q0.171875 -0.421875 0.171875 -0.890625q0 -0.875 -0.546875 -1.375q-0.546875 -0.5 -1.5 -0.5q-0.7500019 0 -1.3750019 0.34375q-0.625 0.328125 -1.171875 0.875l-0.8125 -0.984375q0.6875 -0.640625 1.515625 -1.0625q0.828125 -0.421875 1.8906269 -0.421875q0.78125 0 1.4375 0.203125q0.65625 0.203125 1.125 0.59375q0.484375 0.375 0.734375 0.9375q0.265625 0.5625 0.265625 1.28125q0 1.09375 -0.59375 1.78125q-0.59375 0.6875 -1.5625 1.0625l0 0.078125q0.53125 0.125 1.0 0.375q0.46875 0.25 0.8125 0.640625q0.359375 0.375 0.5625 0.890625q0.203125 0.5 0.203125 1.109375q0 0.78125 -0.3125 1.421875q-0.3125 0.625 -0.84375 1.0625q-0.53125 0.4375 -1.25 0.671875q-0.703125 0.234375 -1.515625 0.234375z" fill-rule="nonzero"/><path fill="#000000" fill-opacity="0.0" d="m46.267715 50.026245l49.732285 0l0 36.62992l-49.732285 0z" fill-rule="evenodd"/><path fill="#005ea2" d="m55.97084 71.70121l0 -6.671875l0.90625 0l3.515625 5.234375l0 -5.234375l0.84375 0l0 6.671875l-0.90625 0l-3.5 -5.25l0 5.25l-0.859375 0zm9.955231 -1.5625l0.84375 0.109375q-0.1875 0.75 -0.734375 1.15625q-0.546875 0.40625 -1.390625 0.40625q-1.0625 0 -1.6875 -0.65625q-0.609375 -0.65625 -0.609375 -1.828125q0 -1.21875 0.625 -1.890625q0.625 -0.6875 1.625 -0.6875q0.984375 0 1.59375 0.671875q0.609375 0.65625 0.609375 1.859375q0 0.0625 0 0.21875l-3.609375 0q0.046875 0.796875 0.453125 1.21875q0.40625 0.421875 1.015625 0.421875q0.453125 0 0.765625 -0.234375q0.3125 -0.234375 0.5 -0.765625zm-2.6875 -1.328125l2.703125 0q-0.0625 -0.609375 -0.3125 -0.90625q-0.390625 -0.46875 -1.015625 -0.46875q-0.5625 0 -0.953125 0.375q-0.375 0.375 -0.421875 1.0zm4.015991 2.890625l1.765625 -2.515625l-1.625 -2.328125l1.015625 0l0.75 1.140625q0.203125 0.328125 0.34375 0.546875q0.1875 -0.3125 0.359375 -0.53125l0.8125 -1.15625l0.984375 0l-1.671875 2.28125l1.796875 2.5625l-1.0 0l-1.0 -1.5l-0.265625 -0.40625l-1.265625 1.90625l-1.0 0zm7.0078125 -0.734375l0.109375 0.71875q-0.34375 0.078125 -0.609375 0.078125q-0.453125 0 -0.703125 -0.140625q-0.234375 -0.140625 -0.34375 -0.359375q-0.09375 -0.234375 -0.09375 -0.984375l0 -2.78125l-0.609375 0l0 -0.640625l0.609375 0l0 -1.1875l0.8125 -0.5l0 1.6875l0.828125 0l0 0.640625l-0.828125 0l0 2.828125q0 0.359375 0.046875 0.46875q0.046875 0.09375 0.140625 0.15625q0.09375 0.046875 0.28125 0.046875q0.140625 0 0.359375 -0.03125zm7.714569 -2.1875l-4.421875 1.890625l0 -0.8125l3.5 -1.453125l-3.5 -1.4375l0 -0.8125l4.421875 1.859375l0 0.765625z" fill-rule="nonzero"/></g></svg>