<?xml version="1.0" encoding="UTF-8" standalone="no"?>
<svg xmlns:xlink="http://www.w3.org/1999/xlink" xmlns="http://www.w3.org/2000/svg" version="1.1" viewBox="0.0 0.0 96.0 96.0" fill="none" stroke="none" stroke-linecap="square" stroke-miterlimit="10"><clipPath id="p.0"><path d="m0 0l96.0 0l0 96.0l-96.0 0l0 -96.0z" clip-rule="nonzero"/></clipPath><g clip-path="url(#p.0)"><path fill="#000000" fill-opacity="0.0" d="m0 0l96.0 0l0 96.0l-96.0 0z" fill-rule="evenodd"/><path fill="#ffffff" d="m-7.5275593 0l111.055115 0l0 96.0l-111.055115 0z" fill-rule="evenodd"/><path fill="#000000" d="m27.066793 60.278122l0 6.921875l-6.203125 0l0 -6.921875l-15.828125 0l0 -5.453125l13.28125 -21.65625l8.75 0l0 21.5l5.156252 0l0 5.609375l-5.156252 0zm-6.125 -20.96875l-9.6875 15.359375l9.6875 0l0 -15.359375zm40.33568 10.734375q0 4.1875 -0.90625 7.5q-0.90625 3.296875 -2.671875 5.578125q-1.75 2.28125 -4.28125 3.484375q-2.53125 1.1875 -5.78125 1.1875q-2.8125 0 -5.1875 -0.984375q-2.359375 -0.984375 -4.078125 -3.109375q-1.71875 -2.125 -2.6875 -5.421875q-0.96875 -3.3125 -0.96875 -7.921875q0 -4.203125 0.921875 -7.5q0.9375 -3.3125 2.671875 -5.578125q1.75 -2.28125 4.296875 -3.484375q2.5625 -1.203125 5.78125 -1.203125q2.8125 0 5.1875 1.0q2.375 0.984375 4.078125 3.09375q1.703125 2.109375 2.65625 5.421875q0.96875 3.296875 0.96875 7.9375zm-20.15625 0.09375q0 0.53125 0 0.984375q0 0.453125 0.0625 0.921875l12.75 -9.21875q-0.90625 -2.578125 -2.40625 -3.8125q-1.5 -1.234375 -3.53125 -1.234375q-1.453125 0 -2.703125 0.75q-1.25 0.734375 -2.171875 2.265625q-0.921875 1.53125 -1.46875 3.859375q-0.53125 2.3125 -0.53125 5.484375zm13.75 0.109375q0 -0.4375 -0.03125 -0.890625q-0.015625 -0.46875 -0.015625 -0.875l-12.6875 9.15625q0.84375 2.53125 2.34375 3.765625q1.515625 1.21875 3.515625 1.21875q1.46875 0 2.71875 -0.75q1.265625 -0.765625 2.1875 -2.28125q0.9375 -1.53125 1.453125 -3.859375q0.515625 -2.328125 0.515625 -5.484375zm30.835678 10.03125l0 6.921875l-6.203125 0l0 -6.921875l-15.828125 0l0 -5.453125l13.28125 -21.65625l8.75 0l0 21.5l5.15625 0l0 5.609375l-5.15625 0zm-6.125 -20.96875l-9.6875 15.359375l9.6875 0l0 -15.359375z" fill-rule="nonzero"/></g></svg>