<svg xmlns:xlink="http://www.w3.org/1999/xlink" xmlns="http://www.w3.org/2000/svg" version="1.1" viewBox="0.0 0.0 96.0 96.0" fill="none" stroke="none" stroke-linecap="square" stroke-miterlimit="10"><clipPath id="p.0"><path d="m0 0l96.0 0l0 96.0l-96.0 0l0 -96.0z" clip-rule="nonzero"/></clipPath><g clip-path="url(#p.0)"><path fill="#000000" fill-opacity="0.0" d="m0 0l96.0 0l0 96.0l-96.0 0z" fill-rule="evenodd"/><path fill="#666666" d="m3.8897874 42.482964l0 0c0 -0.6088333 0.49355435 -1.1023865 1.1023843 -1.1023865l86.0157 0c0.29237366 0 0.57276917 0.11614227 0.77950287 0.3228798c0.20674133 0.20673752 0.3228836 0.48713303 0.3228836 0.7795067l0 4.409401c0 0.6088333 -0.49355316 1.1023865 -1.1023865 1.1023865l-86.0157 0c-0.60883 0 -1.1023843 -0.49355316 -1.1023843 -1.1023865z" fill-rule="evenodd"/><path fill="#666666" d="m3.8897874 53.242794l0 0c0 -0.27832413 0.2256248 -0.5039482 0.503947 -0.5039482l87.21258 0c0.13365173 0 0.2618332 0.053092957 0.3563385 0.14760208c0.09451294 0.094509125 0.1476059 0.22269058 0.1476059 0.35634613l0 2.0157242c0 0.27832413 -0.22562408 0.5039482 -0.5039444 0.5039482l-87.21258 0c-0.27832222 0 -0.503947 -0.22562408 -0.503947 -0.5039482z" fill-rule="evenodd"/><path fill="#666666" d="m3.8897874 59.009525l0 0c0 -0.27832413 0.2256248 -0.5039482 0.503947 -0.5039482l87.21258 0c0.13365173 0 0.2618332 0.053092957 0.3563385 0.14760208c0.09451294 0.094509125 0.1476059 0.22269058 0.1476059 0.35634613l0 2.015728c0 0.2783203 -0.22562408 0.5039444 -0.5039444 0.5039444l-87.21258 0c-0.27832222 0 -0.503947 -0.22562408 -0.503947 -0.5039444z" fill-rule="evenodd"/><path fill="#666666" d="m3.8897874 64.77626l0 0c0 -0.27832794 0.2256248 -0.503952 0.503947 -0.503952l87.21258 0c0.13365173 0 0.2618332 0.053092957 0.3563385 0.1476059c0.09451294 0.09450531 0.1476059 0.22268677 0.1476059 0.35634613l0 2.0157242c0 0.2783203 -0.22562408 0.5039444 -0.5039444 0.5039444l-87.21258 0c-0.27832222 0 -0.503947 -0.22562408 -0.503947 -0.5039444z" fill-rule="evenodd"/><path fill="#666666" d="m3.8897874 70.54299l0 0c0 -0.27832794 0.2256248 -0.503952 0.503947 -0.503952l87.21258 0c0.13365173 0 0.2618332 0.053092957 0.3563385 0.1476059c0.09451294 0.09450531 0.1476059 0.22268677 0.1476059 0.35634613l0 2.0157242c0 0.2783203 -0.22562408 0.503952 -0.5039444 0.503952l-87.21258 0c-0.27832222 0 -0.503947 -0.22563171 -0.503947 -0.503952z" fill-rule="evenodd"/><path fill="#666666" d="m3.8897874 76.30972l0 0c0 -0.2783203 0.2256248 -0.503952 0.503947 -0.503952l87.21258 0c0.13365173 0 0.2618332 0.053100586 0.3563385 0.1476059c0.09451294 0.09450531 0.1476059 0.22268677 0.1476059 0.35634613l0 2.0157242c0 0.27832794 -0.22562408 0.503952 -0.5039444 0.503952l-87.21258 0c-0.27832222 0 -0.503947 -0.22562408 -0.503947 -0.503952z" fill-rule="evenodd"/><path fill="#005ea2" d="m4.0131235 86.05777l0 0c0 -0.7248001 0.58756447 -1.3123627 1.3123622 -1.3123627l39.328033 0c0.3480568 0 0.6818619 0.13826752 0.9279785 0.38438416c0.24611664 0.24611664 0.38438034 0.5799179 0.38438034 0.9279785l0 5.2492905c0 0.7248001 -0.58756256 1.3123627 -1.3123589 1.3123627l-39.328033 0l0 0c-0.7247977 0 -1.3123622 -0.58756256 -1.3123622 -1.3123627z" fill-rule="evenodd"/><path fill="#0c343d" d="m4.304462 15.724409l0 18.868765l13.572178 0z" fill-rule="evenodd"/><path fill="#3c78d8" d="m76.17585 34.404606l-30.209972 0.18856812l14.154858 -21.51794z" fill-rule="evenodd"/><path fill="#e06666" d="m31.614174 4.6351705l0 30.12336l5.6272964 0l21.847767 -29.958004z" fill-rule="evenodd"/><path fill="#f6b26b" d="m92.19423 25.986877l-10.860893 0.16535378l10.527557 -19.532808z" fill-rule="evenodd"/><path fill="#ff00ff" d="m45.965878 48.0l50.047245 0l0 48.0l-50.047245 0z" fill-rule="evenodd"/><path fill="#ffffff" d="m52.776398 83.04l0 -21.9375l16.265625 0l0 3.703125l-11.84375 0l0 4.859375l11.015625 0l0 3.703125l-11.015625 0l0 5.96875l12.265625 0l0 3.703125l-16.6875 0zm18.213104 0l7.5 -11.453125l-6.796875 -10.484375l5.171875 0l4.40625 7.046875l4.3125 -7.046875l5.140625 0l-6.828125 10.65625l7.5 11.28125l-5.34375 0l-4.875 -7.59375l-4.875 7.59375l-5.3125 0z" fill-rule="nonzero"/></g></svg>