<?xml version="1.0" encoding="UTF-8" standalone="no"?>
<svg version="1.1" viewBox="0.0 0.0 192.0 192.0" fill="none" stroke="none" stroke-linecap="square" stroke-miterlimit="10" xmlns:xlink="http://www.w3.org/1999/xlink" xmlns="http://www.w3.org/2000/svg"><clipPath id="p.0"><path d="m0 0l192.0 0l0 192.0l-192.0 0l0 -192.0z" clip-rule="nonzero"/></clipPath><g clip-path="url(#p.0)"><path fill="#000000" fill-opacity="0.0" d="m0 0l192.0 0l0 192.0l-192.0 0z" fill-rule="evenodd"/><path fill="#000000" d="m12.232284 30.943626l0 0c0 -1.5510674 1.2573881 -2.8084564 2.8084555 -2.8084564l161.91064 0c0.7448578 0 1.459198 0.2958908 1.9858856 0.82257843c0.5266876 0.5266876 0.8225708 1.2410278 0.8225708 1.985878l0 11.233482c0 1.5510674 -1.2573853 2.8084564 -2.8084564 2.8084564l-161.91064 0l0 0c-1.5510674 0 -2.8084555 -1.2573891 -2.8084555 -2.8084564z" fill-rule="evenodd"/><path fill="#000000" d="m12.232284 60.3186l0 0c0 -1.5510674 1.2573881 -2.8084564 2.8084555 -2.8084564l161.91064 0c0.7448578 0 1.459198 0.2958908 1.9858856 0.82257843c0.5266876 0.5266876 0.8225708 1.2410278 0.8225708 1.985878l0 11.233486c0 1.5510635 -1.2573853 2.8084488 -2.8084564 2.8084488l-161.91064 0l0 0c-1.5510674 0 -2.8084555 -1.2573853 -2.8084555 -2.8084488z" fill-rule="evenodd"/><path fill="#000000" d="m38.399025 90.154915l0 0c0 -1.5510712 1.2573891 -2.8084564 2.8084564 -2.8084564l135.73743 0c0.7448425 0 1.459198 0.2958908 1.9858856 0.82257843c0.5266876 0.5266876 0.8225708 1.2410278 0.8225708 1.985878l0 11.233482c0 1.5510635 -1.2573853 2.8084564 -2.8084564 2.8084564l-135.73743 0c-1.5510674 0 -2.8084564 -1.2573929 -2.8084564 -2.8084564z" fill-rule="evenodd"/><path fill="#000000" d="m38.399025 119.989555l0 0c0 -1.5510635 1.2573891 -2.8084564 2.8084564 -2.8084564l135.73743 0c0.7448425 0 1.459198 0.2958908 1.9858856 0.82257843c0.5266876 0.5266876 0.8225708 1.2410278 0.8225708 1.985878l0 11.233482c0 1.5510712 -1.2573853 2.8084564 -2.8084564 2.8084564l-135.73743 0c-1.5510674 0 -2.8084564 -1.2573853 -2.8084564 -2.8084564z" fill-rule="evenodd"/><path fill="#000000" d="m12.240157 149.82254l0 0c0 -1.5510712 1.2573881 -2.8084564 2.8084555 -2.8084564l161.91064 0c0.7448578 0 1.459198 0.29588318 1.9858856 0.8225708c0.5266876 0.5266876 0.8225708 1.2410278 0.8225708 1.9858856l0 11.233475c0 1.5510712 -1.2573853 2.8084564 -2.8084564 2.8084564l-161.91064 0l0 0c-1.5510674 0 -2.8084555 -1.2573853 -2.8084555 -2.8084564z" fill-rule="evenodd"/></g></svg>