<svg xmlns:xlink="http://www.w3.org/1999/xlink" xmlns="http://www.w3.org/2000/svg" version="1.1" viewBox="0.0 0.0 96.0 96.0" fill="none" stroke="none" stroke-linecap="square" stroke-miterlimit="10">
	<clipPath id="p.0">
		<path d="m0 0l96.0 0l0 96.0l-96.0 0l0 -96.0z" clip-rule="nonzero" />
	</clipPath>
	<g clip-path="url(#p.0)">
		<path fill="#000000" fill-opacity="0.0" d="m0 0l96.0 0l0 96.0l-96.0 0z" fill-rule="evenodd" />
		<path fill="#ff00ff" d="m106.23097 45.88714l50.04724 0l0 48.0l-50.04724 0z" fill-rule="evenodd" />
		<path fill="#ffffff" d="m113.04149 80.92714l0 -21.9375l16.265625 0l0 3.703125l-11.84375 0l0 4.859375l11.015625 0l0 3.703125l-11.015625 0l0 5.96875l12.265625 0l0 3.703125l-16.6875 0zm18.213104 0l7.5 -11.453125l-6.796875 -10.484375l5.171875 0l4.40625 7.046875l4.3125 -7.046875l5.140625 0l-6.828125 10.65625l7.5 11.28125l-5.34375 0l-4.875 -7.59375l-4.875 7.59375l-5.3125 0z" fill-rule="nonzero" />
		<path fill="#565c65" d="m9.338583 11.641383l0 0c0 -1.7574062 1.4246588 -3.182066 3.182065 -3.182066l70.95871 0c0.8439331 0 1.653305 0.33525276 2.2500534 0.9320059c0.596756 0.5967531 0.93200684 1.4061241 0.93200684 2.25006l0 27.840591c0 1.7574081 -1.4246597 3.1820679 -3.1820602 3.1820679l-70.95871 0c-1.7574062 0 -3.182065 -1.4246597 -3.182065 -3.1820679z" fill-rule="evenodd" />
		<path fill="#ffffff" d="m29.676643 36.50168l0 -17.96875l-6.0625 0l0 -2.140625l14.71875 0l0 2.140625l-6.078125 0l0 17.96875l-2.578125 0zm14.501999 -11.25l-0.953125 3.0625l6.046875 0l-0.953125 -3.0625q-0.546875 -1.6875 -1.046875 -3.359375q-0.484375 -1.671875 -0.96875 -3.421875l-0.125 0q-0.46875 1.75 -0.953125 3.421875q-0.484375 1.671875 -1.046875 3.359375zm-6.125 11.25l6.796875 -20.109375l2.890625 0l6.796875 20.109375l-2.71875 0l-1.90625 -6.125l-7.328125 0l-1.921875 6.125l-2.609375 0zm26.948502 0.375q-2.640625 0 -4.703125 -1.234375q-2.046875 -1.25 -3.21875 -3.578125q-1.15625 -2.34375 -1.15625 -5.625q0 -3.25 1.1875 -5.578125q1.203125 -2.328125 3.28125 -3.578125q2.09375 -1.265625 4.765625 -1.265625q2.078125 0 3.5 0.78125q1.421875 0.78125 2.28125 1.703125l-1.40625 1.65625q-0.765625 -0.796875 -1.78125 -1.34375q-1.0 -0.546875 -2.53125 -0.546875q-2.03125 0 -3.53125 1.0q-1.5 0.984375 -2.3125 2.796875q-0.8125 1.8125 -0.8125 4.328125q0 3.796875 1.71875 6.015625q1.734375 2.21875 4.953125 2.21875q1.078125 0 2.0625 -0.3125q0.984375 -0.328125 1.5625 -0.875l0 -5.25l-4.265625 0l0 -2.109375l6.59375 0l0 8.453125q-0.953125 1.015625 -2.5625 1.6875q-1.609375 0.65625 -3.625 0.65625z" fill-rule="nonzero" />
		<path fill="#0076d6" d="m9.338583 55.966843l0 0c0 -1.7574081 1.4246588 -3.182064 3.182065 -3.182064l70.95871 0c0.8439331 0 1.653305 0.33525085 2.2500534 0.932003c0.596756 0.59675217 0.93200684 1.4061241 0.93200684 2.250061l0 27.840591c0 1.7574081 -1.4246597 3.1820679 -3.1820602 3.1820679l-70.95871 0c-1.7574062 0 -3.182065 -1.4246597 -3.182065 -3.1820679z" fill-rule="evenodd" />
		<path fill="#ffffff" d="m29.676643 80.82713l0 -17.968746l-6.0625 0l0 -2.140625l14.71875 0l0 2.140625l-6.078125 0l0 17.968746l-2.578125 0zm14.501999 -11.25l-0.953125 3.0625l6.046875 0l-0.953125 -3.0625q-0.546875 -1.6875 -1.046875 -3.359375q-0.484375 -1.671875 -0.96875 -3.4218712l-0.125 0q-0.46875 1.7499962 -0.953125 3.4218712q-0.484375 1.671875 -1.046875 3.359375zm-6.125 11.25l6.796875 -20.109371l2.890625 0l6.796875 20.109371l-2.71875 0l-1.90625 -6.125l-7.328125 0l-1.921875 6.125l-2.609375 0zm26.948502 0.375q-2.640625 0 -4.703125 -1.234375q-2.046875 -1.25 -3.21875 -3.578125q-1.15625 -2.34375 -1.15625 -5.625q0 -3.25 1.1875 -5.578125q1.203125 -2.3281212 3.28125 -3.5781212q2.09375 -1.265625 4.765625 -1.265625q2.078125 0 3.5 0.78125q1.421875 0.78125 2.28125 1.703125l-1.40625 1.6562462q-0.765625 -0.7968712 -1.78125 -1.3437462q-1.0 -0.546875 -2.53125 -0.546875q-2.03125 0 -3.53125 1.0q-1.5 0.9843712 -2.3125 2.7968712q-0.8125 1.8125 -0.8125 4.328125q0 3.796875 1.71875 6.015625q1.734375 2.21875 4.953125 2.21875q1.078125 0 2.0625 -0.3125q0.984375 -0.328125 1.5625 -0.875l0 -5.25l-4.265625 0l0 -2.109375l6.59375 0l0 8.453125q-0.953125 1.015625 -2.5625 1.6875q-1.609375 0.65625 -3.625 0.65625z" fill-rule="nonzero" />
	</g>
</svg>