<svg xmlns:xlink="http://www.w3.org/1999/xlink" xmlns="http://www.w3.org/2000/svg" version="1.1" viewBox="0.0 0.0 96.0 96.0" fill="none" stroke="none" stroke-linecap="square" stroke-miterlimit="10">
	<clipPath id="p.0">
		<path d="m0 0l96.0 0l0 96.0l-96.0 0l0 -96.0z" clip-rule="nonzero" />
	</clipPath>
	<g clip-path="url(#p.0)">
		<path fill="#000000" fill-opacity="0.0" d="m0 0l96.0 0l0 96.0l-96.0 0z" fill-rule="evenodd" />
		<path fill="#000000" fill-opacity="0.0" d="m41.53806 56.160107l96.0 0l0 30.70866l-96.0 0z" fill-rule="evenodd" />
		<path fill="#005ea2" d="m52.72556 80.7301q-1.8125 0 -3.171875 -0.765625q-1.34375 -0.78125 -2.09375 -2.28125q-0.75 -1.515625 -0.75 -3.703125q0 -2.046875 0.703125 -3.59375q0.703125 -1.546875 2.03125 -2.390625q1.34375 -0.859375 3.28125 -0.859375q1.8125 0 3.140625 0.796875q1.328125 0.78125 2.0625 2.3125q0.75 1.53125 0.75 3.734375q0 2.0 -0.6875 3.53125q-0.671875 1.515625 -2.0 2.375q-1.328125 0.84375 -3.265625 0.84375zm0 -1.84375q1.171875 0 1.984375 -0.59375q0.8125 -0.59375 1.234375 -1.703125q0.421875 -1.125 0.421875 -2.65625q0 -1.40625 -0.375 -2.515625q-0.375 -1.125 -1.171875 -1.78125q-0.796875 -0.671875 -2.09375 -0.671875q-1.1875 0 -2.015625 0.59375q-0.8125 0.59375 -1.234375 1.703125q-0.421875 1.109375 -0.421875 2.671875q0 1.375 0.359375 2.515625q0.375 1.125 1.1875 1.78125q0.828125 0.65625 2.125 0.65625zm10.316406 1.59375l0 -11.390625l-2.78125 0l0 -1.703125l2.78125 0l0 -2.03125q0 -1.5468712 0.78125 -2.3593712q0.7968712 -0.828125 2.3749962 -0.828125l2.484375 0l0 1.65625l-1.9375 0q-0.8125 0 -1.109375 0.4374962q-0.296875 0.421875 -0.296875 1.296875l0 1.828125l3.21875 0l0 1.703125l-3.171875 0l0 11.390625l-2.3437462 0zm22.294064 0l0 -4.671875l-8.625 0l0 -2.140625l8.546875 -11.499996l2.375 0l0 11.578121l3.046875 0l0 2.0625l-3.046875 0l0 4.671875l-2.296875 0zm-6.375 -6.734375l6.328125 0l0 -8.5l-6.328125 8.5z" fill-rule="nonzero" />
		<path fill="#ff00ff" d="m45.952755 48.937008l50.047245 0l0 47.999996l-50.047245 0z" fill-rule="evenodd" />
		<path fill="#ffffff" d="m52.763275 83.977005l0 -21.937496l16.265625 0l0 3.7031212l-11.84375 0l0 4.859375l11.015625 0l0 3.703125l-11.015625 0l0 5.96875l12.265625 0l0 3.703125l-16.6875 0zm18.213104 0l7.5 -11.453125l-6.796875 -10.484371l5.171875 0l4.40625 7.046871l4.3125 -7.046871l5.140625 0l-6.828125 10.656246l7.5 11.28125l-5.34375 0l-4.875 -7.59375l-4.875 7.59375l-5.3125 0z" fill-rule="nonzero" />
		<path fill="#005ea2" d="m3.7742782 70.71129l0 0c0 -10.07159 8.164635 -18.236221 18.23622 -18.236221l0 0c4.836548 0 9.475 1.9213104 12.894955 5.341263c3.4199562 3.4199562 5.3412666 8.058411 5.3412666 12.8949585l0 0c0 10.071587 -8.164635 18.236221 -18.236221 18.236221l0 0c-10.071586 0 -18.23622 -8.164635 -18.23622 -18.236221z" fill-rule="evenodd" />
		<path stroke="#005ea2" stroke-width="1.0" stroke-linejoin="round" stroke-linecap="butt" d="m3.7742782 70.71129l0 0c0 -10.07159 8.164635 -18.236221 18.23622 -18.236221l0 0c4.836548 0 9.475 1.9213104 12.894955 5.341263c3.4199562 3.4199562 5.3412666 8.058411 5.3412666 12.8949585l0 0c0 10.071587 -8.164635 18.236221 -18.236221 18.236221l0 0c-10.071586 0 -18.23622 -8.164635 -18.23622 -18.236221z" fill-rule="evenodd" />
		<path fill="#ffffff" d="m16.73208 80.03129l0 -1.234375q2.421875 -2.4375 4.125 -4.265625q1.703125 -1.84375 2.578125 -3.328125q0.890625 -1.484375 0.890625 -2.765625q0 -1.40625 -0.765625 -2.28125q-0.75 -0.890625 -2.296875 -0.890625q-1.015625 0 -1.875 0.578125q-0.859375 0.5625 -1.5625 1.375l-1.203125 -1.1875q1.015625 -1.125 2.171875 -1.796875q1.15625 -0.6718788 2.71875 -0.6718788q2.25 0 3.546875 1.3125038q1.2968731 1.296875 1.2968731 3.453125q0 1.515625 -0.859375 3.078125q-0.8437481 1.5625 -2.328123 3.28125q-1.46875 1.703125 -3.40625 3.703125q0.671875 -0.0625 1.375 -0.109375q0.703125 -0.046875 1.34375 -0.046875l4.687498 0l0 1.796875l-10.437498 0z" fill-rule="nonzero" />
		<path fill="#000000" fill-opacity="0.0" d="m22.07349 22.56168l19.968506 0" fill-rule="evenodd" />
		<path stroke="#005ea2" stroke-width="1.0" stroke-linejoin="round" stroke-linecap="butt" d="m22.07349 22.56168l19.968506 0" fill-rule="evenodd" />
		<path fill="#162e51" d="m3.7742782 22.56168l0 0c0 -5.0531883 4.0964184 -9.149607 9.149607 -9.149607l0 0c2.4266262 0 4.7538652 0.963974 6.4697485 2.6798573c1.7158852 1.7158852 2.6798573 4.0431232 2.6798573 6.4697495l0 0c0 5.0531883 -4.0964184 9.149607 -9.149606 9.149607l0 0c-5.053188 0 -9.149607 -4.0964184 -9.149607 -9.149607z" fill-rule="evenodd" />
		<path stroke="#162e51" stroke-width="1.0" stroke-linejoin="round" stroke-linecap="butt" d="m3.7742782 22.56168l0 0c0 -5.0531883 4.0964184 -9.149607 9.149607 -9.149607l0 0c2.4266262 0 4.7538652 0.963974 6.4697485 2.6798573c1.7158852 1.7158852 2.6798573 4.0431232 2.6798573 6.4697495l0 0c0 5.0531883 -4.0964184 9.149607 -9.149606 9.149607l0 0c-5.053188 0 -9.149607 -4.0964184 -9.149607 -9.149607z" fill-rule="evenodd" />
		<path fill="#000000" fill-opacity="0.0" d="m57.149605 22.56168l16.7874 0" fill-rule="evenodd" />
		<path stroke="#005ea2" stroke-width="1.0" stroke-linejoin="round" stroke-linecap="butt" d="m57.149605 22.56168l16.7874 0" fill-rule="evenodd" />
		<path fill="#005ea2" d="m38.850395 22.56168l0 0c0 -5.0531883 4.0964165 -9.149607 9.149605 -9.149607l0 0c2.426628 0 4.7538643 0.963974 6.4697495 2.6798573c1.7158813 1.7158852 2.6798553 4.0431232 2.6798553 6.4697495l0 0c0 5.0531883 -4.0964165 9.149607 -9.149605 9.149607l0 0c-5.0531883 0 -9.149605 -4.0964184 -9.149605 -9.149607z" fill-rule="evenodd" />
		<path stroke="#005ea2" stroke-width="1.0" stroke-linejoin="round" stroke-linecap="butt" d="m38.850395 22.56168l0 0c0 -5.0531883 4.0964165 -9.149607 9.149605 -9.149607l0 0c2.426628 0 4.7538643 0.963974 6.4697495 2.6798573c1.7158813 1.7158852 2.6798553 4.0431232 2.6798553 6.4697495l0 0c0 5.0531883 -4.0964165 9.149607 -9.149605 9.149607l0 0c-5.0531883 0 -9.149605 -4.0964184 -9.149605 -9.149607z" fill-rule="evenodd" />
		<path fill="#ffffff" d="m73.926506 22.56168l0 0c0 -5.0531883 4.0964203 -9.149607 9.149612 -9.149607l0 0c2.4266205 0 4.7538605 0.963974 6.4697495 2.6798573c1.7158813 1.7158852 2.6798553 4.0431232 2.6798553 6.4697495l0 0c0 5.0531883 -4.0964203 9.149607 -9.149605 9.149607l0 0c-5.053192 0 -9.149612 -4.0964184 -9.149612 -9.149607z" fill-rule="evenodd" />
		<path stroke="#999999" stroke-width="1.0" stroke-linejoin="round" stroke-linecap="butt" d="m73.926506 22.56168l0 0c0 -5.0531883 4.0964203 -9.149607 9.149612 -9.149607l0 0c2.4266205 0 4.7538605 0.963974 6.4697495 2.6798573c1.7158813 1.7158852 2.6798553 4.0431232 2.6798553 6.4697495l0 0c0 5.0531883 -4.0964203 9.149607 -9.149605 9.149607l0 0c-5.053192 0 -9.149612 -4.0964184 -9.149612 -9.149607z" fill-rule="evenodd" />
	</g>
</svg>