<svg xmlns:xlink="http://www.w3.org/1999/xlink" xmlns="http://www.w3.org/2000/svg" version="1.1" viewBox="0.0 0.0 96.0 96.0" fill="none" stroke="none" stroke-linecap="square" stroke-miterlimit="10">
	<clipPath id="p.0">
		<path d="m0 0l96.0 0l0 96.0l-96.0 0l0 -96.0z" clip-rule="nonzero" />
	</clipPath>
	<g clip-path="url(#p.0)">
		<path fill="#000000" fill-opacity="0.0" d="m0 0l96.0 0l0 96.0l-96.0 0z" fill-rule="evenodd" />
		<path fill="#005ea2" d="m7.133858 11.471159l0 0c0 -0.8378658 0.6792245 -1.5170908 1.5170903 -1.5170908l78.698105 0c0.402359 0 0.7882309 0.15983582 1.0727463 0.44434547c0.28450775 0.28450966 0.44434357 0.6703882 0.44434357 1.0727453l0 6.06818c0 0.8378658 -0.6792221 1.5170918 -1.5170898 1.5170918l-78.698105 0c-0.8378658 0 -1.5170903 -0.6792259 -1.5170903 -1.5170918z" fill-rule="evenodd" />
		<path stroke="#005ea2" stroke-width="1.0" stroke-linejoin="round" stroke-linecap="butt" d="m7.133858 11.471159l0 0c0 -0.8378658 0.6792245 -1.5170908 1.5170903 -1.5170908l78.698105 0c0.402359 0 0.7882309 0.15983582 1.0727463 0.44434547c0.28450775 0.28450966 0.44434357 0.6703882 0.44434357 1.0727453l0 6.06818c0 0.8378658 -0.6792221 1.5170918 -1.5170898 1.5170918l-78.698105 0c-0.8378658 0 -1.5170903 -0.6792259 -1.5170903 -1.5170918z" fill-rule="evenodd" />
		<path fill="#565c65" d="m7.133858 26.339916l0 0c0 -0.5624447 0.45595026 -1.0183945 1.018393 -1.0183945l79.695496 0c0.27009583 0 0.529129 0.10729599 0.72011566 0.29828072c0.19098663 0.19098663 0.2982788 0.45001793 0.2982788 0.72011375l0 4.07345c0 0.5624428 -0.45594788 1.0183926 -1.0183945 1.0183926l-79.695496 0c-0.5624428 0 -1.018393 -0.45594978 -1.018393 -1.0183926z" fill-rule="evenodd" />
		<path stroke="#565c65" stroke-width="1.0" stroke-linejoin="round" stroke-linecap="butt" d="m7.133858 26.339916l0 0c0 -0.5624447 0.45595026 -1.0183945 1.018393 -1.0183945l79.695496 0c0.27009583 0 0.529129 0.10729599 0.72011566 0.29828072c0.19098663 0.19098663 0.2982788 0.45001793 0.2982788 0.72011375l0 4.07345c0 0.5624428 -0.45594788 1.0183926 -1.0183945 1.0183926l-79.695496 0c-0.5624428 0 -1.018393 -0.45594978 -1.018393 -1.0183926z" fill-rule="evenodd" />
		<path fill="#565c65" d="m7.133858 35.442276l0 0c0 -0.5624428 0.45595026 -1.0183907 1.018393 -1.0183907l79.695496 0c0.27009583 0 0.529129 0.107292175 0.72011566 0.2982788c0.19098663 0.19098663 0.2982788 0.45001984 0.2982788 0.72011185l0 4.073452c0 0.5624428 -0.45594788 1.0183945 -1.0183945 1.0183945l-79.695496 0c-0.5624428 0 -1.018393 -0.4559517 -1.018393 -1.0183945z" fill-rule="evenodd" />
		<path stroke="#565c65" stroke-width="1.0" stroke-linejoin="round" stroke-linecap="butt" d="m7.133858 35.442276l0 0c0 -0.5624428 0.45595026 -1.0183907 1.018393 -1.0183907l79.695496 0c0.27009583 0 0.529129 0.107292175 0.72011566 0.2982788c0.19098663 0.19098663 0.2982788 0.45001984 0.2982788 0.72011185l0 4.073452c0 0.5624428 -0.45594788 1.0183945 -1.0183945 1.0183945l-79.695496 0c-0.5624428 0 -1.018393 -0.4559517 -1.018393 -1.0183945z" fill-rule="evenodd" />
		<path fill="#565c65" d="m7.133858 44.54464l0 0c0 -0.5624428 0.45595026 -1.0183945 1.018393 -1.0183945l79.695496 0c0.27009583 0 0.529129 0.10729599 0.72011566 0.29828262c0.19098663 0.19098663 0.2982788 0.45001602 0.2982788 0.72011185l0 4.073452c0 0.5624428 -0.45594788 1.0183907 -1.0183945 1.0183907l-79.695496 0c-0.5624428 0 -1.018393 -0.45594788 -1.018393 -1.0183907z" fill-rule="evenodd" />
		<path stroke="#565c65" stroke-width="1.0" stroke-linejoin="round" stroke-linecap="butt" d="m7.133858 44.54464l0 0c0 -0.5624428 0.45595026 -1.0183945 1.018393 -1.0183945l79.695496 0c0.27009583 0 0.529129 0.10729599 0.72011566 0.29828262c0.19098663 0.19098663 0.2982788 0.45001602 0.2982788 0.72011185l0 4.073452c0 0.5624428 -0.45594788 1.0183907 -1.0183945 1.0183907l-79.695496 0c-0.5624428 0 -1.018393 -0.45594788 -1.018393 -1.0183907z" fill-rule="evenodd" />
		<path fill="#565c65" d="m7.133858 53.647003l0 0c0 -0.5624428 0.45595026 -1.0183945 1.018393 -1.0183945l79.695496 0c0.27009583 0 0.529129 0.10729599 0.72011566 0.2982788c0.19098663 0.19098663 0.2982788 0.45001984 0.2982788 0.72011566l0 4.073448c0 0.5624428 -0.45594788 1.0183945 -1.0183945 1.0183945l-79.695496 0c-0.5624428 0 -1.018393 -0.4559517 -1.018393 -1.0183945z" fill-rule="evenodd" />
		<path stroke="#565c65" stroke-width="1.0" stroke-linejoin="round" stroke-linecap="butt" d="m7.133858 53.647003l0 0c0 -0.5624428 0.45595026 -1.0183945 1.018393 -1.0183945l79.695496 0c0.27009583 0 0.529129 0.10729599 0.72011566 0.2982788c0.19098663 0.19098663 0.2982788 0.45001984 0.2982788 0.72011566l0 4.073448c0 0.5624428 -0.45594788 1.0183945 -1.0183945 1.0183945l-79.695496 0c-0.5624428 0 -1.018393 -0.4559517 -1.018393 -1.0183945z" fill-rule="evenodd" />
		<path fill="#565c65" d="m7.133858 80.95409l0 0c0 -0.56243896 0.45595026 -1.0183945 1.018393 -1.0183945l20.79786 0c0.27009392 0 0.5291271 0.107299805 0.72011185 0.29828644c0.19098663 0.19098663 0.29828072 0.4500122 0.29828072 0.72010803l0 4.073456c0 0.56243896 -0.45594978 1.0183868 -1.0183926 1.0183868l-20.79786 0c-0.5624428 0 -1.018393 -0.45594788 -1.018393 -1.0183868z" fill-rule="evenodd" />
		<path stroke="#565c65" stroke-width="1.0" stroke-linejoin="round" stroke-linecap="butt" d="m7.133858 80.95409l0 0c0 -0.56243896 0.45595026 -1.0183945 1.018393 -1.0183945l20.79786 0c0.27009392 0 0.5291271 0.107299805 0.72011185 0.29828644c0.19098663 0.19098663 0.29828072 0.4500122 0.29828072 0.72010803l0 4.073456c0 0.56243896 -0.45594978 1.0183868 -1.0183926 1.0183868l-20.79786 0c-0.5624428 0 -1.018393 -0.45594788 -1.018393 -1.0183868z" fill-rule="evenodd" />
		<path fill="#cc0000" d="m36.582676 80.95409l0 0c0 -0.56243896 0.4559517 -1.0183945 1.0183945 -1.0183945l20.79786 0c0.27009583 0 0.5291252 0.107299805 0.72011185 0.29828644c0.19098663 0.19098663 0.29828262 0.4500122 0.29828262 0.72010803l0 4.073456c0 0.56243896 -0.4559517 1.0183868 -1.0183945 1.0183868l-20.79786 0c-0.5624428 0 -1.0183945 -0.45594788 -1.0183945 -1.0183868z" fill-rule="evenodd" />
		<path stroke="#cc0000" stroke-width="1.0" stroke-linejoin="round" stroke-linecap="butt" d="m36.582676 80.95409l0 0c0 -0.56243896 0.4559517 -1.0183945 1.0183945 -1.0183945l20.79786 0c0.27009583 0 0.5291252 0.107299805 0.72011185 0.29828644c0.19098663 0.19098663 0.29828262 0.4500122 0.29828262 0.72010803l0 4.073456c0 0.56243896 -0.4559517 1.0183868 -1.0183945 1.0183868l-20.79786 0c-0.5624428 0 -1.0183945 -0.45594788 -1.0183945 -1.0183868z" fill-rule="evenodd" />
		<path fill="#1155cc" d="m66.031494 80.95409l0 0c0 -0.56243896 0.4559555 -1.0183945 1.0183945 -1.0183945l20.79786 0c0.27009583 0 0.529129 0.107299805 0.72011566 0.29828644c0.19098663 0.19098663 0.2982788 0.4500122 0.2982788 0.72010803l0 4.073456c0 0.56243896 -0.45594788 1.0183868 -1.0183945 1.0183868l-20.79786 0c-0.56243896 0 -1.0183945 -0.45594788 -1.0183945 -1.0183868z" fill-rule="evenodd" />
		<path stroke="#1155cc" stroke-width="1.0" stroke-linejoin="round" stroke-linecap="butt" d="m66.031494 80.95409l0 0c0 -0.56243896 0.4559555 -1.0183945 1.0183945 -1.0183945l20.79786 0c0.27009583 0 0.529129 0.107299805 0.72011566 0.29828644c0.19098663 0.19098663 0.2982788 0.4500122 0.2982788 0.72010803l0 4.073456c0 0.56243896 -0.45594788 1.0183868 -1.0183945 1.0183868l-20.79786 0c-0.56243896 0 -1.0183945 -0.45594788 -1.0183945 -1.0183868z" fill-rule="evenodd" />
		<path fill="#999999" d="m7.133858 67.300545l0 0c0 -0.56243896 0.45595026 -1.0183945 1.018393 -1.0183945l31.002583 0c0.27009583 0 0.529129 0.107299805 0.72011185 0.2982788c0.19098663 0.19098663 0.29828262 0.45001984 0.29828262 0.72011566l0 4.073448c0 0.5624466 -0.4559517 1.0183945 -1.0183945 1.0183945l-31.002583 0c-0.5624428 0 -1.018393 -0.45594788 -1.018393 -1.0183945z" fill-rule="evenodd" />
		<path stroke="#999999" stroke-width="1.0" stroke-linejoin="round" stroke-linecap="butt" d="m7.133858 67.300545l0 0c0 -0.56243896 0.45595026 -1.0183945 1.018393 -1.0183945l31.002583 0c0.27009583 0 0.529129 0.107299805 0.72011185 0.2982788c0.19098663 0.19098663 0.29828262 0.45001984 0.29828262 0.72011566l0 4.073448c0 0.5624466 -0.4559517 1.0183945 -1.0183945 1.0183945l-31.002583 0c-0.5624428 0 -1.018393 -0.45594788 -1.018393 -1.0183945z" fill-rule="evenodd" />
		<path fill="#ff00ff" d="m45.952755 48.0l50.047245 0l0 48.0l-50.047245 0z" fill-rule="evenodd" />
		<path fill="#ffffff" d="m52.763275 83.04l0 -21.9375l16.265625 0l0 3.703125l-11.84375 0l0 4.859375l11.015625 0l0 3.703125l-11.015625 0l0 5.96875l12.265625 0l0 3.703125l-16.6875 0zm18.213104 0l7.5 -11.453125l-6.796875 -10.484375l5.171875 0l4.40625 7.046875l4.3125 -7.046875l5.140625 0l-6.828125 10.65625l7.5 11.28125l-5.34375 0l-4.875 -7.59375l-4.875 7.59375l-5.3125 0z" fill-rule="nonzero" />
	</g>
</svg>