<?xml version="1.0" encoding="UTF-8" standalone="no"?>
<svg version="1.1" viewBox="0.0 0.0 100.0 100.0" fill="none" stroke="none" stroke-linecap="square" stroke-miterlimit="10" xmlns:xlink="http://www.w3.org/1999/xlink" xmlns="http://www.w3.org/2000/svg"><clipPath id="p.0"><path d="m0 0l100.0 0l0 100.0l-100.0 0l0 -100.0z" clip-rule="nonzero"/></clipPath><g clip-path="url(#p.0)"><path fill="#000000" fill-opacity="0.0" d="m0 0l100.0 0l0 100.0l-100.0 0z" fill-rule="evenodd"/><path fill="#000000" d="m12.192913 12.645669l15.370079 0l0 14.929133l-15.370079 0z" fill-rule="evenodd"/><path fill="#000000" d="m32.274277 12.645669l15.370079 0l0 14.929133l-15.370079 0z" fill-rule="evenodd"/><path fill="#000000" d="m52.355644 12.645669l15.370079 0l0 14.929133l-15.370079 0z" fill-rule="evenodd"/><path fill="#000000" d="m72.437004 12.645669l15.370079 0l0 14.929133l-15.370079 0z" fill-rule="evenodd"/><path fill="#ff0000" d="m12.242783 27.574802l0 -14.929133l15.370079 14.929133z" fill-rule="evenodd"/><path fill="#ff0000" d="m12.242783 32.572178l15.370079 0l0 14.929134l-15.370079 0z" fill-rule="evenodd"/><path fill="#ff0000" d="m12.192913 52.498688l15.370079 0l0 14.929131l-15.370079 0z" fill-rule="evenodd"/><path fill="#ff0000" d="m12.242783 72.42519l15.370079 0l0 14.929138l-15.370079 0z" fill-rule="evenodd"/></g></svg>