<svg version="1.1" viewBox="0.0 0.0 96.0 96.0" fill="none" stroke="none" stroke-linecap="square"
	stroke-miterlimit="10" xmlns:xlink="http://www.w3.org/1999/xlink"
	xmlns="http://www.w3.org/2000/svg">
	<clipPath id="p.0">
		<path d="m0 0l96.0 0l0 96.0l-96.0 0l0 -96.0z" clip-rule="nonzero" />
	</clipPath>
	<g clip-path="url(#p.0)">
		<path fill="#000000" fill-opacity="0.0" d="m0 0l96.0 0l0 96.0l-96.0 0z" fill-rule="evenodd" />
		<path fill="#ff00ff" d="m107.755905 48.0l50.04724 0l0 48.0l-50.04724 0z" fill-rule="evenodd" />
		<path fill="#ffffff"
			d="m114.56642 83.04l0 -21.9375l16.265625 0l0 3.703125l-11.84375 0l0 4.859375l11.015625 0l0 3.703125l-11.015625 0l0 5.96875l12.265625 0l0 3.703125l-16.6875 0zm18.213104 0l7.5 -11.453125l-6.796875 -10.484375l5.171875 0l4.40625 7.046875l4.3125 -7.046875l5.140625 0l-6.828125 10.65625l7.5 11.28125l-5.34375 0l-4.875 -7.59375l-4.875 7.59375l-5.3125 0z"
			fill-rule="nonzero" />
		<path fill="#cfe2f3" d="m0 27.427822l96.0 0l0 54.110233l-96.0 0z" fill-rule="evenodd" />
		<path fill="#ffe599" d="m63.90026 69.32546l-14.46719 0l2.8934364 -14.619427l8.680317 0z"
			fill-rule="evenodd" />
		<path stroke="#000000" stroke-width="1.0" stroke-linejoin="round" stroke-linecap="butt"
			d="m63.90026 69.32546l-14.46719 0l2.8934364 -14.619427l8.680317 0z" fill-rule="evenodd" />
		<path fill="#cfe2f3"
			d="m49.43832 47.47769l0 0c0 -3.9921074 3.2362404 -7.228348 7.228348 -7.228348c3.9921036 0 7.228344 3.2362404 7.228344 7.228348c0 3.9921036 -3.2362404 7.228344 -7.228344 7.228344c-3.9921074 0 -7.228348 -3.2362404 -7.228348 -7.228344z"
			fill-rule="evenodd" />
		<path fill="#a5b4c2"
			d="m53.597965 45.31588c0 -0.41584396 0.3371086 -0.7529526 0.7529526 -0.7529526c0.41584396 0 0.7529526 0.3371086 0.7529526 0.7529526c0 0.41584396 -0.3371086 0.7529526 -0.7529526 0.7529526c-0.41584396 0 -0.7529526 -0.3371086 -0.7529526 -0.7529526m4.6314964 0c0 -0.41584396 0.3371086 -0.7529526 0.7529526 -0.7529526c0.41584396 0 0.7529526 0.3371086 0.7529526 0.7529526c0 0.41584396 -0.3371086 0.7529526 -0.7529526 0.7529526c-0.41584396 0 -0.7529526 -0.3371086 -0.7529526 -0.7529526"
			fill-rule="evenodd" />
		<path fill="#000000" fill-opacity="0.0"
			d="m52.748856 50.63002q3.9178123 2.6906815 7.826473 0" fill-rule="evenodd" />
		<path fill="#000000" fill-opacity="0.0"
			d="m49.43832 47.47769l0 0c0 -3.9921074 3.2362404 -7.228348 7.228348 -7.228348c3.9921036 0 7.228344 3.2362404 7.228344 7.228348c0 3.9921036 -3.2362404 7.228344 -7.228344 7.228344c-3.9921074 0 -7.228348 -3.2362404 -7.228348 -7.228344z"
			fill-rule="evenodd" />
		<path stroke="#000000" stroke-width="1.0" stroke-linejoin="round" stroke-linecap="butt"
			d="m53.597965 45.31588c0 -0.41584396 0.3371086 -0.7529526 0.7529526 -0.7529526c0.41584396 0 0.7529526 0.3371086 0.7529526 0.7529526c0 0.41584396 -0.3371086 0.7529526 -0.7529526 0.7529526c-0.41584396 0 -0.7529526 -0.3371086 -0.7529526 -0.7529526m4.6314964 0c0 -0.41584396 0.3371086 -0.7529526 0.7529526 -0.7529526c0.41584396 0 0.7529526 0.3371086 0.7529526 0.7529526c0 0.41584396 -0.3371086 0.7529526 -0.7529526 0.7529526c-0.41584396 0 -0.7529526 -0.3371086 -0.7529526 -0.7529526"
			fill-rule="evenodd" />
		<path stroke="#000000" stroke-width="1.0" stroke-linejoin="round" stroke-linecap="butt"
			d="m52.748856 50.63002q3.9178123 2.6906815 7.826473 0" fill-rule="evenodd" />
		<path stroke="#000000" stroke-width="1.0" stroke-linejoin="round" stroke-linecap="butt"
			d="m49.43832 47.47769l0 0c0 -3.9921074 3.2362404 -7.228348 7.228348 -7.228348c3.9921036 0 7.228344 3.2362404 7.228344 7.228348c0 3.9921036 -3.2362404 7.228344 -7.228344 7.228344c-3.9921074 0 -7.228348 -3.2362404 -7.228348 -7.228344z"
			fill-rule="evenodd" />
		<path fill="#cfe2f3"
			d="m69.656166 52.929134l0 0c0 -3.9921074 3.2362442 -7.228348 7.228348 -7.228348c3.9921036 0 7.228348 3.2362404 7.228348 7.228348c0 3.9921036 -3.2362442 7.228348 -7.228348 7.228348c-3.9921036 0 -7.228348 -3.2362442 -7.228348 -7.228348z"
			fill-rule="evenodd" />
		<path fill="#a5b4c2"
			d="m73.81581 50.767323c0 -0.41584396 0.33711243 -0.7529526 0.7529526 -0.7529526c0.41584778 0 0.7529526 0.3371086 0.7529526 0.7529526c0 0.41584396 -0.3371048 0.7529526 -0.7529526 0.7529526c-0.41584015 0 -0.7529526 -0.3371086 -0.7529526 -0.7529526m4.6315002 0c0 -0.41584396 0.3371048 -0.7529526 0.7529526 -0.7529526c0.41584015 0 0.7529526 0.3371086 0.7529526 0.7529526c0 0.41584396 -0.33711243 0.7529526 -0.7529526 0.7529526c-0.41584778 0 -0.7529526 -0.3371086 -0.7529526 -0.7529526"
			fill-rule="evenodd" />
		<path fill="#000000" fill-opacity="0.0"
			d="m72.966705 56.081463q3.9178085 2.6906815 7.8264694 0" fill-rule="evenodd" />
		<path fill="#000000" fill-opacity="0.0"
			d="m69.656166 52.929134l0 0c0 -3.9921074 3.2362442 -7.228348 7.228348 -7.228348c3.9921036 0 7.228348 3.2362404 7.228348 7.228348c0 3.9921036 -3.2362442 7.228348 -7.228348 7.228348c-3.9921036 0 -7.228348 -3.2362442 -7.228348 -7.228348z"
			fill-rule="evenodd" />
		<path stroke="#000000" stroke-width="1.0" stroke-linejoin="round" stroke-linecap="butt"
			d="m73.81581 50.767323c0 -0.41584396 0.33711243 -0.7529526 0.7529526 -0.7529526c0.41584778 0 0.7529526 0.3371086 0.7529526 0.7529526c0 0.41584396 -0.3371048 0.7529526 -0.7529526 0.7529526c-0.41584015 0 -0.7529526 -0.3371086 -0.7529526 -0.7529526m4.6315002 0c0 -0.41584396 0.3371048 -0.7529526 0.7529526 -0.7529526c0.41584015 0 0.7529526 0.3371086 0.7529526 0.7529526c0 0.41584396 -0.33711243 0.7529526 -0.7529526 0.7529526c-0.41584778 0 -0.7529526 -0.3371086 -0.7529526 -0.7529526"
			fill-rule="evenodd" />
		<path stroke="#000000" stroke-width="1.0" stroke-linejoin="round" stroke-linecap="butt"
			d="m72.966705 56.081463q3.9178085 2.6906815 7.8264694 0" fill-rule="evenodd" />
		<path stroke="#000000" stroke-width="1.0" stroke-linejoin="round" stroke-linecap="butt"
			d="m69.656166 52.929134l0 0c0 -3.9921074 3.2362442 -7.228348 7.228348 -7.228348c3.9921036 0 7.228348 3.2362404 7.228348 7.228348c0 3.9921036 -3.2362442 7.228348 -7.228348 7.228348c-3.9921036 0 -7.228348 -3.2362442 -7.228348 -7.228348z"
			fill-rule="evenodd" />
		<path fill="#f4cccc" d="m69.656166 60.157482l14.456696 0l0 14.61417l-14.456696 0z"
			fill-rule="evenodd" />
		<path stroke="#000000" stroke-width="1.0" stroke-linejoin="round" stroke-linecap="butt"
			d="m69.656166 60.157482l14.456696 0l0 14.61417l-14.456696 0z" fill-rule="evenodd" />
		<path fill="#162e51" d="m4.9737535 36.32021l37.66929 0l0 39.937008l-37.66929 0z"
			fill-rule="evenodd" />
		<path fill="#005ea2"
			d="m7.209974 67.84779l0 0c0 -0.7247925 0.58756447 -1.3123627 1.3123622 -1.3123627l30.572128 0c0.3480568 0 0.6818619 0.13826752 0.9279785 0.38438416c0.24611664 0.24611664 0.38438416 0.5799179 0.38438416 0.9279785l0 5.2492905c0 0.7248001 -0.5875664 1.3123627 -1.3123627 1.3123627l-30.572128 0c-0.7247977 0 -1.3123622 -0.58756256 -1.3123622 -1.3123627z"
			fill-rule="evenodd" />
		<path fill="#ffffff"
			d="m13.3359585 69.79003l0 0c0 -0.18844604 0.15276623 -0.3412094 0.34121323 -0.3412094l20.262453 0c0.09049606 0 0.17728424 0.035949707 0.24127579 0.09993744c0.06399155 0.06398773 0.09993744 0.15077972 0.09993744 0.24127197l0 1.3648148c0 0.18845367 -0.15276337 0.34121704 -0.34121323 0.34121704l-20.262453 0l0 0c-0.188447 0 -0.34121323 -0.15276337 -0.34121323 -0.34121704z"
			fill-rule="evenodd" />
		<path fill="#ffffff"
			d="m7.209974 48.674545l0 0c0 -0.13626099 0.11046219 -0.24672318 0.24672413 -0.24672318l32.7034 0c0.06543732 0 0.1281929 0.025993347 0.17446136 0.07226181c0.046268463 0.046272278 0.072265625 0.10902786 0.072265625 0.17446136l0 0.986866c0 0.1362648 -0.11046219 0.24672699 -0.24672699 0.24672699l-32.7034 0c-0.13626194 0 -0.24672413 -0.11046219 -0.24672413 -0.24672699z"
			fill-rule="evenodd" />
		<path fill="#ffffff"
			d="m7.209974 52.73583l0 0c0 -0.13626099 0.11046219 -0.24672318 0.24672413 -0.24672318l32.7034 0c0.06543732 0 0.1281929 0.025993347 0.17446136 0.07226181c0.046268463 0.046268463 0.072265625 0.10902405 0.072265625 0.17446136l0 0.986866c0 0.13626099 -0.11046219 0.24672318 -0.24672699 0.24672318l-32.7034 0c-0.13626194 0 -0.24672413 -0.11046219 -0.24672413 -0.24672318z"
			fill-rule="evenodd" />
		<path fill="#ffffff"
			d="m7.209974 56.685043l0 0c0 -0.13626099 0.11046219 -0.24672318 0.24672413 -0.24672318l32.7034 0c0.06543732 0 0.1281929 0.025993347 0.17446136 0.072265625c0.046268463 0.046268463 0.072265625 0.10902405 0.072265625 0.17445755l0 0.986866c0 0.1362648 -0.11046219 0.24672699 -0.24672699 0.24672699l-32.7034 0c-0.13626194 0 -0.24672413 -0.11046219 -0.24672413 -0.24672699z"
			fill-rule="evenodd" />
		<path fill="#ffffff"
			d="m7.209974 60.746326l0 0c0 -0.13626099 0.11046219 -0.24672318 0.24672413 -0.24672318l32.7034 0c0.06543732 0 0.1281929 0.025993347 0.17446136 0.07226181c0.046268463 0.046272278 0.072265625 0.10902405 0.072265625 0.17446136l0 0.986866c0 0.13626099 -0.11046219 0.24672318 -0.24672699 0.24672318l-32.7034 0c-0.13626194 0 -0.24672413 -0.11046219 -0.24672413 -0.24672318z"
			fill-rule="evenodd" />
		<path fill="#ffffff"
			d="m7.209974 40.85303l0 0c0 -0.33340836 0.2702794 -0.6036873 0.60368633 -0.6036873l31.98948 0c0.16010666 0 0.31365585 0.06360245 0.42686844 0.17681503c0.113212585 0.113212585 0.17681885 0.2667656 0.17681885 0.42687225l0 2.4146729c0 0.33340836 -0.27028275 0.6036873 -0.6036873 0.6036873l-31.98948 0c-0.33340693 0 -0.60368633 -0.27027893 -0.60368633 -0.6036873z"
			fill-rule="evenodd" />
		<path fill="#000000" fill-opacity="0.0" d="m0 0l96.0 0l0 30.740158l-96.0 0z"
			fill-rule="evenodd" />
		<path fill="#000000"
			d="m18.752304 20.48l0 -15.265625l3.078125 0l0 6.0l6.046875 0l0 -6.0l3.078125 0l0 15.265625l-3.078125 0l0 -6.671875l-6.046875 0l0 6.671875l-3.078125 0zm15.386871 0l0 -15.265625l11.328125 0l0 2.578125l-8.234375 0l0 3.390625l7.65625 0l0 2.5625l-7.65625 0l0 4.15625l8.515625 0l0 2.578125l-11.609375 0zm14.241318 0l0 -15.265625l6.484375 0q2.453125 0 3.5625 0.421875q1.109375 0.40625 1.765625 1.453125q0.671875 1.046875 0.671875 2.40625q0 1.71875 -1.015625 2.84375q-1.0 1.109375 -3.015625 1.40625q1.0 0.578125 1.640625 1.28125q0.65625 0.6875 1.765625 2.46875l1.859375 2.984375l-3.6875 0l-2.21875 -3.328125q-1.1875 -1.78125 -1.625 -2.234375q-0.4375 -0.46875 -0.9375 -0.640625q-0.484375 -0.171875 -1.546875 -0.171875l-0.625 0l0 6.375l-3.078125 0zm3.078125 -8.8125l2.28125 0q2.21875 0 2.765625 -0.1875q0.5625 -0.1875 0.875 -0.640625q0.3125 -0.46875 0.3125 -1.140625q0 -0.78125 -0.421875 -1.25q-0.40625 -0.46875 -1.15625 -0.59375q-0.375 -0.0625 -2.25 -0.0625l-2.40625 0l0 3.875zm11.683746 1.265625q0 -2.328125 0.703125 -3.90625q0.515625 -1.171875 1.421875 -2.09375q0.90625 -0.921875 1.96875 -1.375q1.4375 -0.609375 3.296875 -0.609375q3.375 0 5.390625 2.09375q2.03125 2.09375 2.03125 5.828125q0 3.6875 -2.015625 5.78125q-2.0 2.09375 -5.359375 2.09375q-3.40625 0 -5.421875 -2.078125q-2.015625 -2.078125 -2.015625 -5.734375zm3.1875 -0.09375q0 2.59375 1.1875 3.9375q1.203125 1.328125 3.046875 1.328125q1.84375 0 3.015625 -1.328125q1.1875 -1.328125 1.1875 -3.984375q0 -2.625 -1.15625 -3.90625q-1.140625 -1.296875 -3.046875 -1.296875q-1.90625 0 -3.078125 1.3125q-1.15625 1.296875 -1.15625 3.9375z"
			fill-rule="nonzero" />
	</g>
</svg>