<svg version="1.1" viewBox="0.0 0.0 100.0 100.0" fill="none" stroke="none" stroke-linecap="square" stroke-miterlimit="10" xmlns:xlink="http://www.w3.org/1999/xlink" xmlns="http://www.w3.org/2000/svg"><clipPath id="p.0"><path d="m0 0l100.0 0l0 100.0l-100.0 0l0 -100.0z" clip-rule="nonzero"/></clipPath><g clip-path="url(#p.0)"><path fill="#000000" fill-opacity="0.0" d="m0 0l100.0 0l0 100.0l-100.0 0z" fill-rule="evenodd"/><path fill="#000000" d="m5.9251966 17.34006l18.48819 0l0 7.4646053l-18.48819 0z" fill-rule="evenodd"/><path fill="#000000" d="m29.14567 17.34006l18.488188 0l0 7.4646053l-18.488188 0z" fill-rule="evenodd"/><path fill="#000000" d="m52.366142 17.34006l18.48819 0l0 7.4646053l-18.48819 0z" fill-rule="evenodd"/><path fill="#000000" d="m75.58662 17.34006l18.48819 0l0 7.4646053l-18.48819 0z" fill-rule="evenodd"/><path fill="#666666" d="m5.9238844 27.096493l18.48819 0l0 5.9730873l-18.48819 0z" fill-rule="evenodd"/><path fill="#666666" d="m29.144358 27.096493l18.488188 0l0 5.9730873l-18.488188 0z" fill-rule="evenodd"/><path fill="#666666" d="m52.36483 27.096493l18.48819 0l0 5.9730873l-18.48819 0z" fill-rule="evenodd"/><path fill="#666666" d="m75.585304 27.096493l18.48819 0l0 5.9730873l-18.48819 0z" fill-rule="evenodd"/><path fill="#666666" d="m5.9238844 35.361584l18.48819 0l0 5.973091l-18.48819 0z" fill-rule="evenodd"/><path fill="#666666" d="m29.144358 35.361584l18.488188 0l0 5.973091l-18.488188 0z" fill-rule="evenodd"/><path fill="#666666" d="m52.36483 35.361584l18.48819 0l0 5.973091l-18.48819 0z" fill-rule="evenodd"/><path fill="#666666" d="m75.585304 35.361584l18.48819 0l0 5.973091l-18.48819 0z" fill-rule="evenodd"/><path fill="#666666" d="m5.9238844 43.626675l18.48819 0l0 5.973091l-18.48819 0z" fill-rule="evenodd"/><path fill="#666666" d="m29.144358 43.626675l18.488188 0l0 5.973091l-18.488188 0z" fill-rule="evenodd"/><path fill="#666666" d="m52.36483 43.626675l18.48819 0l0 5.973091l-18.48819 0z" fill-rule="evenodd"/><path fill="#666666" d="m75.585304 43.626675l18.48819 0l0 5.973091l-18.48819 0z" fill-rule="evenodd"/><path fill="#666666" d="m5.9238844 51.891766l18.48819 0l0 5.973091l-18.48819 0z" fill-rule="evenodd"/><path fill="#666666" d="m29.144358 51.891766l18.488188 0l0 5.973091l-18.488188 0z" fill-rule="evenodd"/><path fill="#666666" d="m52.36483 51.891766l18.48819 0l0 5.973091l-18.48819 0z" fill-rule="evenodd"/><path fill="#666666" d="m75.585304 51.891766l18.48819 0l0 5.973091l-18.48819 0z" fill-rule="evenodd"/><path fill="#666666" d="m5.9265094 60.15555l18.488188 0l0 5.973091l-18.488188 0z" fill-rule="evenodd"/><path fill="#666666" d="m29.146982 60.15555l18.488188 0l0 5.973091l-18.488188 0z" fill-rule="evenodd"/><path fill="#666666" d="m52.367455 60.15555l18.48819 0l0 5.973091l-18.48819 0z" fill-rule="evenodd"/><path fill="#666666" d="m75.58793 60.15555l18.48819 0l0 5.973091l-18.48819 0z" fill-rule="evenodd"/><path fill="#666666" d="m5.9265094 68.42195l18.488188 0l0 5.973091l-18.488188 0z" fill-rule="evenodd"/><path fill="#666666" d="m29.146982 68.42195l18.488188 0l0 5.973091l-18.488188 0z" fill-rule="evenodd"/><path fill="#666666" d="m52.367455 68.42195l18.48819 0l0 5.973091l-18.48819 0z" fill-rule="evenodd"/><path fill="#666666" d="m75.58793 68.42195l18.48819 0l0 5.973091l-18.48819 0z" fill-rule="evenodd"/><path fill="#666666" d="m5.9265094 76.68704l18.488188 0l0 5.973091l-18.488188 0z" fill-rule="evenodd"/><path fill="#666666" d="m29.146982 76.68704l18.488188 0l0 5.973091l-18.488188 0z" fill-rule="evenodd"/><path fill="#666666" d="m52.367455 76.68704l18.48819 0l0 5.973091l-18.48819 0z" fill-rule="evenodd"/><path fill="#666666" d="m75.58793 76.68704l18.48819 0l0 5.973091l-18.48819 0z" fill-rule="evenodd"/></g></svg>