<svg xmlns:xlink="http://www.w3.org/1999/xlink" xmlns="http://www.w3.org/2000/svg" version="1.1" viewBox="0.0 0.0 96.0 96.0" fill="none" stroke="none" stroke-linecap="square" stroke-miterlimit="10">
	<clipPath id="p.0">
		<path d="m0 0l96.0 0l0 96.0l-96.0 0l0 -96.0z" clip-rule="nonzero" />
	</clipPath>
	<g clip-path="url(#p.0)">
		<path fill="#000000" fill-opacity="0.0" d="m0 0l96.0 0l0 96.0l-96.0 0z" fill-rule="evenodd" />
		<path fill="#ff00ff" d="m111.3727 33.07874l50.04725 0l0 48.000004l-50.04725 0z" fill-rule="evenodd" />
		<path fill="#ffffff" d="m118.18322 68.118744l0 -21.937504l16.265633 0l0 3.703125l-11.843758 0l0 4.859375l11.015633 0l0 3.703125l-11.015633 0l0 5.968754l12.265633 0l0 3.703125l-16.687508 0zm18.213112 0l7.4999847 -11.453129l-6.7968597 -10.484375l5.171875 0l4.4062347 7.046875l4.3125 -7.046875l5.140625 0l-6.828125 10.65625l7.5 11.281254l-5.34375 0l-4.875 -7.593754l-4.8749847 7.593754l-5.3125 0z" fill-rule="nonzero" />
		<path fill="#000000" fill-opacity="0.0" d="m0 4.3622046l96.0 0l0 87.27559l-96.0 0z" fill-rule="evenodd" />
		<path fill="#000000" fill-opacity="0.0" d="m4.0 4.602044l67.29648 0l0 28.2002l-67.29648 0l0 -28.2002z" fill-rule="nonzero" />
		<path fill="#005ea2" d="m5.9375 27.402205l0 -17.359375l3.5 0l0 6.968751l7.59375 0l0 -6.968751l3.5 0l0 17.359375l-3.5 0l0 -7.453125l-7.59375 0l0 7.453125l-3.5 0zm23.124878 0.234375q-1.8125 0 -3.171875 -0.765625q-1.34375 -0.78125 -2.09375 -2.203125q-0.734375 -1.4375 -0.734375 -3.390625q0 -1.96875 0.734375 -3.421875q0.75 -1.46875 2.09375 -2.281251q1.359375 -0.8125 3.1875 -0.8125q1.84375 0 3.1875 0.796875q1.34375 0.79687595 2.0625 2.265626q0.734375 1.453125 0.734375 3.453125q0 1.859375 -0.71875 3.296875q-0.703125 1.4375 -2.046875 2.25q-1.328125 0.8125 -3.234375 0.8125zm0.015625 -2.59375q0.921875 0 1.484375 -0.53125q0.5625 -0.546875 0.8125 -1.421875q0.265625 -0.890625 0.265625 -1.9375q0 -0.984375 -0.234375 -1.859375q-0.21875 -0.875 -0.796875 -1.40625q-0.5625 -0.546875 -1.53125 -0.546875q-0.921875 0 -1.5 0.515625q-0.5625 0.5 -0.828125 1.375q-0.265625 0.859375 -0.265625 1.921875q0 0.96875 0.234375 1.875q0.25 0.890625 0.8125 1.453125q0.5625 0.5625 1.546875 0.5625zm8.390228 2.359375l0 -12.406251l3.4375 0l0 1.750001q0.5625 -0.81250095 1.515625 -1.390626q0.953125 -0.59375 2.40625 -0.59375q0.625 0 1.28125 0.234375q0.671875 0.21875 1.25 0.65625q0.578125 0.43750095 0.953125 1.093751q0.59375 -0.85937595 1.5625 -1.421876q0.984375 -0.5625 2.1875 -0.5625q0.6875 0 1.40625 0.234375q0.71875 0.21875 1.3125 0.734375q0.609375 0.51562595 0.96875 1.375001q0.359375 0.859375 0.359375 2.109375l0 8.1875l-3.5 0l0 -7.75q0 -0.75 -0.296875 -1.1875q-0.28125 -0.453125 -0.734375 -0.65625q-0.453125 -0.203125 -0.953125 -0.203125q-0.46875 0 -0.953125 0.1875q-0.484375 0.1875 -0.828125 0.59375q-0.328125 0.40625 -0.328125 1.078125l0 7.9375l-3.484375 0l0 -8.0625q0 -0.5625 -0.3125 -0.9375q-0.296875 -0.390625 -0.75 -0.59375q-0.4375 -0.203125 -0.90625 -0.203125q-0.484375 0 -0.96875 0.203125q-0.46875 0.203125 -0.796875 0.625q-0.328125 0.40625 -0.328125 1.03125l0 7.9375l-3.5 0zm27.195282 0.234375q-1.84375 0 -3.25 -0.765625q-1.390625 -0.78125 -2.171875 -2.1875q-0.78125 -1.421875 -0.78125 -3.34375q0 -1.859375 0.703125 -3.34375q0.71875 -1.5 2.0625 -2.359376q1.34375 -0.875 3.25 -0.875q1.90625 0 3.1875 0.796875q1.28125 0.79687595 1.9375 2.218751q0.65625 1.421875 0.65625 3.28125l0 0.9375l-8.328125 0q0 0.953125 0.3125 1.65625q0.3125 0.703125 0.90625 1.078125q0.59375 0.375 1.421875 0.375q0.90625 0 1.578125 -0.375q0.671875 -0.390625 0.953125 -1.265625l3.15625 0q-0.21875 1.328125 -1.0625 2.265625q-0.84375 0.921875 -2.046875 1.421875q-1.1875 0.484375 -2.484375 0.484375zm-2.734375 -7.71875l5.0625 0q0 -0.75 -0.28125 -1.375q-0.28125 -0.625 -0.84375 -0.984375q-0.5625 -0.359375 -1.390625 -0.359375q-0.8125 0 -1.390625 0.390625q-0.5625 0.390625 -0.875 1.015625q-0.296875 0.625 -0.28125 1.3125z" fill-rule="nonzero" />
		<path fill="#000000" d="m78.11476 24.902205l0 -3.015625l7.21875 -2.6875l-7.234375 -2.78125l0 -3.015626l11.078125 4.312501l0 2.90625l-11.0625 4.28125z" fill-rule="nonzero" />
		<path fill="#005ea2" d="m4.0 28.962204l67.29648 0l0 2.1599998l-67.29648 0l0 -2.1599998z" fill-rule="nonzero" />
		<path fill="#000000" fill-opacity="0.0" d="m4.0 33.402042l52.044357 0l0 28.2002l-52.044357 0l0 -28.2002z" fill-rule="nonzero" />
		<path fill="#005ea2" d="m5.9375 56.2022l0 -17.359375l3.5 0l0 17.359375l-3.5 0zm12.049927 0.125q-1.65625 0 -2.546875 -0.40625q-0.890625 -0.421875 -1.234375 -1.171875q-0.34375 -0.765625 -0.34375 -1.765625l0 -6.75l-2.015625 0l0 -2.4375l2.125 0l0.890625 -3.75l2.5 0l0 3.734375l2.75 0l0 2.453125l-2.75 0l0.015625 6.609375q0 0.453125 0.109375 0.6875q0.125 0.21875 0.359375 0.28125q0.25 0.0625 0.640625 0.0625l1.671875 0l0 2.15625q-0.265625 0.109375 -0.765625 0.203125q-0.5 0.09375 -1.40625 0.09375zm9.931808 0.109375q-1.84375 0 -3.25 -0.765625q-1.390625 -0.78125 -2.171875 -2.1875q-0.78125 -1.421875 -0.78125 -3.34375q0 -1.859375 0.703125 -3.34375q0.71875 -1.5 2.0625 -2.359375q1.34375 -0.875 3.25 -0.875q1.90625 0 3.1875 0.796875q1.28125 0.796875 1.9375 2.21875q0.65625 1.421875 0.65625 3.28125l0 0.9375l-8.328125 0q0 0.953125 0.3125 1.65625q0.3125 0.703125 0.90625 1.078125q0.59375 0.375 1.421875 0.375q0.90625 0 1.578125 -0.375q0.671875 -0.390625 0.953125 -1.265625l3.15625 0q-0.21875 1.328125 -1.0625 2.265625q-0.84375 0.921875 -2.046875 1.421875q-1.1875 0.484375 -2.484375 0.484375zm-2.734375 -7.71875l5.0625 0q0 -0.75 -0.28125 -1.375q-0.28125 -0.625 -0.84375 -0.984375q-0.5625 -0.359375 -1.390625 -0.359375q-0.8125 0 -1.390625 0.390625q-0.5625 0.390625 -0.875 1.015625q-0.296875 0.625 -0.28125 1.3125zm10.86734 7.484375l0 -12.40625l3.4375 0l0 1.75q0.5625 -0.8125 1.515625 -1.390625q0.953125 -0.59375 2.40625 -0.59375q0.625 0 1.28125 0.234375q0.671875 0.21875 1.25 0.65625q0.578125 0.4375 0.953125 1.09375q0.59375 -0.859375 1.5625 -1.421875q0.984375 -0.5625 2.1875 -0.5625q0.6875 0 1.40625 0.234375q0.71875 0.21875 1.3125 0.734375q0.609375 0.515625 0.96875 1.375q0.359375 0.859375 0.359375 2.109375l0 8.1875l-3.5 0l0 -7.75q0 -0.75 -0.296875 -1.1875q-0.28125 -0.453125 -0.734375 -0.65625q-0.453125 -0.203125 -0.953125 -0.203125q-0.46875 0 -0.953125 0.1875q-0.484375 0.1875 -0.828125 0.59375q-0.328125 0.40625 -0.328125 1.078125l0 7.9375l-3.484375 0l0 -8.0625q0 -0.5625 -0.3125 -0.9375q-0.296875 -0.390625 -0.75 -0.59375q-0.4375 -0.203125 -0.90625 -0.203125q-0.484375 0 -0.96875 0.203125q-0.46875 0.203125 -0.796875 0.625q-0.328125 0.40625 -0.328125 1.03125l0 7.9375l-3.5 0z" fill-rule="nonzero" />
		<path fill="#000000" d="m62.86264 53.7022l0 -3.015625l7.21875 -2.6875l-7.234375 -2.78125l0 -3.015625l11.078125 4.3125l0 2.90625l-11.0625 4.28125z" fill-rule="nonzero" />
		<path fill="#005ea2" d="m4.0 57.7622l52.044357 0l0 2.1599998l-52.044357 0l0 -2.1599998z" fill-rule="nonzero" />
		<path fill="#000000" d="m12.453125 85.23658q-1.296875 0 -2.53125 -0.3125q-1.234375 -0.328125 -2.265625 -0.96875q-1.015625 -0.65625 -1.671875 -1.625q-0.65625 -0.96875 -0.78125 -2.28125l3.578125 0q0.1875 0.796875 0.6875 1.34375q0.515625 0.53125 1.328125 0.8125q0.8125 0.28125 1.859375 0.28125q0.828125 0 1.5625 -0.234375q0.75 -0.234375 1.21875 -0.71875q0.46875 -0.5 0.46875 -1.25q0 -0.890625 -0.65625 -1.328125q-0.640625 -0.453125 -1.765625 -0.71875l-3.25 -0.703125q-1.375 -0.296875 -2.40625 -0.890625q-1.015625 -0.609375 -1.578125 -1.59375q-0.546875 -0.984375 -0.546875 -2.390625q0 -1.609375 0.890625 -2.78125q0.890625 -1.1875 2.4375 -1.8125q1.546875 -0.625 3.46875 -0.625q2.171875 0 3.65625 0.703125q1.5 0.6875 2.28125 1.890625q0.796875 1.1875 0.8125 2.65625l-3.5 0q-0.09375 -0.90625 -0.5625 -1.4375q-0.453125 -0.546875 -1.171875 -0.796875q-0.703125 -0.25 -1.609375 -0.25q-1.578125 0 -2.296875 0.640625q-0.71875 0.625 -0.71875 1.46875q0 0.796875 0.546875 1.28125q0.546875 0.484375 1.75 0.734375l3.015625 0.65625q1.6875 0.3125 2.71875 1.015625q1.046875 0.703125 1.53125 1.703125q0.484375 1.0 0.484375 2.234375q0 1.578125 -0.90625 2.765625q-0.890625 1.1875 -2.46875 1.859375q-1.5625 0.671875 -3.609375 0.671875zm14.233124 0q-0.875 0 -1.703125 -0.25q-0.828125 -0.265625 -1.515625 -0.78125q-0.6875 -0.515625 -1.109375 -1.265625q-0.40625 -0.765625 -0.40625 -1.765625l0 -8.578125l3.5 0l0 8.140625q0 0.859375 0.5625 1.421875q0.5625 0.546875 1.65625 0.546875q1.03125 0 1.640625 -0.53125q0.609375 -0.546875 0.609375 -1.5l0 -8.078125l3.46875 0l0 12.40625l-2.640625 0l-0.40625 -2.453125q-0.21875 1.078125 -0.8125 1.671875q-0.59375 0.578125 -1.359375 0.796875q-0.765625 0.21875 -1.484375 0.21875zm16.680237 0q-0.921875 0 -1.59375 -0.234375q-0.671875 -0.234375 -1.140625 -0.640625q-0.46875 -0.40625 -0.765625 -0.890625q-0.296875 -0.5 -0.46875 -1.015625l-0.390625 2.546875l-2.546875 0l0 -17.828125l3.515625 0l0 7.09375q0.234375 -0.390625 0.59375 -0.734375q0.359375 -0.34375 0.828125 -0.609375q0.484375 -0.265625 1.0625 -0.40625q0.59375 -0.15625 1.25 -0.15625q2.3125 0 3.625 1.671875q1.3125 1.65625 1.3125 4.6875q0 1.96875 -0.609375 3.4375q-0.59375 1.46875 -1.765625 2.28125q-1.171875 0.796875 -2.90625 0.796875zm-0.765625 -2.515625q1.125 0 1.875 -0.921875q0.75 -0.9375 0.75 -3.125q0 -1.921875 -0.71875 -2.84375q-0.703125 -0.9375 -1.921875 -0.9375q-0.875 0 -1.453125 0.421875q-0.578125 0.40625 -0.859375 1.25q-0.28125 0.84375 -0.296875 2.109375q0 2.203125 0.65625 3.125q0.65625 0.921875 1.96875 0.921875z" fill-rule="nonzero" />
	</g>
</svg>