<svg xmlns:xlink="http://www.w3.org/1999/xlink" xmlns="http://www.w3.org/2000/svg" version="1.1" viewBox="0.0 0.0 96.0 96.0" fill="none" stroke="none" stroke-linecap="square" stroke-miterlimit="10">
	<clipPath id="p.0">
		<path d="m0 0l96.0 0l0 96.0l-96.0 0l0 -96.0z" clip-rule="nonzero" />
	</clipPath>
	<g clip-path="url(#p.0)">
		<path fill="#000000" fill-opacity="0.0" d="m0 0l96.0 0l0 96.0l-96.0 0z" fill-rule="evenodd" />
		<path fill="#ff00ff" d="m111.3727 33.07874l50.04725 0l0 48.000004l-50.04725 0z" fill-rule="evenodd" />
		<path fill="#ffffff" d="m118.18322 68.118744l0 -21.937504l16.265633 0l0 3.703125l-11.843758 0l0 4.859375l11.015633 0l0 3.703125l-11.015633 0l0 5.968754l12.265633 0l0 3.703125l-16.687508 0zm18.213112 0l7.4999847 -11.453129l-6.7968597 -10.484375l5.171875 0l4.4062347 7.046875l4.3125 -7.046875l5.140625 0l-6.828125 10.65625l7.5 11.281254l-5.34375 0l-4.875 -7.593754l-4.8749847 7.593754l-5.3125 0z" fill-rule="nonzero" />
		<path fill="#000000" fill-opacity="0.0" d="m0 4.3622046l96.0 0l0 87.27559l-96.0 0z" fill-rule="evenodd" />
		<path fill="#000000" fill-opacity="0.0" d="m9.0 13.558761l51.41658 0l0 21.921097l-51.41658 0l0 -21.921097z" fill-rule="nonzero" />
		<path fill="#1155cc" d="m10.78125 31.282204l0 -13.484375l1.71875 0l0 5.734375l7.28125 0l0 -5.734375l1.734375 0l0 13.484375l-1.734375 0l0 -6.21875l-7.28125 0l0 6.21875l-1.71875 0zm17.660034 0.1875q-1.328125 0 -2.328125 -0.5625q-0.984375 -0.578125 -1.53125 -1.6875q-0.546875 -1.125 -0.546875 -2.71875q0 -1.515625 0.5 -2.65625q0.515625 -1.140625 1.5 -1.765625q1.0 -0.625 2.421875 -0.625q1.328125 0 2.3125 0.578125q0.984375 0.578125 1.53125 1.71875q0.546875 1.125 0.546875 2.75q0 1.46875 -0.515625 2.59375q-0.5 1.109375 -1.484375 1.75q-0.96875 0.625 -2.40625 0.625zm0.015625 -1.359375q0.859375 0 1.453125 -0.4375q0.59375 -0.4375 0.90625 -1.25q0.3125 -0.828125 0.3125 -1.96875q0 -1.03125 -0.28125 -1.859375q-0.265625 -0.828125 -0.859375 -1.3125q-0.578125 -0.484375 -1.53125 -0.484375q-0.875 0 -1.484375 0.4375q-0.609375 0.4375 -0.921875 1.265625q-0.3125 0.8125 -0.3125 1.953125q0 1.015625 0.28125 1.859375q0.28125 0.828125 0.875 1.3125q0.609375 0.484375 1.5625 0.484375zm6.67511 1.171875l0 -9.640625l1.671875 0l0 1.390625q0.390625 -0.625 1.09375 -1.09375q0.703125 -0.484375 1.8125 -0.484375q0.53125 0 1.078125 0.171875q0.546875 0.171875 1.0 0.53125q0.453125 0.359375 0.703125 0.875q0.453125 -0.71875 1.21875 -1.140625q0.765625 -0.4375 1.71875 -0.4375q0.515625 0 1.0625 0.15625q0.546875 0.140625 1.015625 0.53125q0.46875 0.390625 0.765625 1.078125q0.3125 0.6875 0.3125 1.75l0 6.3125l-1.734375 0l0 -6.140625q0 -0.875 -0.28125 -1.34375q-0.28125 -0.484375 -0.734375 -0.6875q-0.453125 -0.203125 -0.96875 -0.203125q-0.453125 0 -0.953125 0.1875q-0.5 0.171875 -0.859375 0.59375q-0.34375 0.421875 -0.34375 1.140625l0 6.453125l-1.71875 0l0 -6.640625q0 -0.5625 -0.3125 -0.9375q-0.296875 -0.390625 -0.75 -0.59375q-0.453125 -0.203125 -0.90625 -0.203125q-0.484375 0 -0.984375 0.203125q-0.5 0.203125 -0.84375 0.625q-0.34375 0.421875 -0.34375 1.09375l0 6.453125l-1.71875 0zm20.21579 0.1875q-1.34375 0 -2.375 -0.578125q-1.015625 -0.59375 -1.59375 -1.6875q-0.578125 -1.109375 -0.578125 -2.65625q0 -1.515625 0.515625 -2.65625q0.53125 -1.15625 1.515625 -1.796875q1.0 -0.640625 2.390625 -0.640625q1.375 0 2.3125 0.59375q0.9375 0.578125 1.421875 1.65625q0.5 1.0625 0.5 2.515625l0 0.640625l-6.90625 0q0 0.921875 0.296875 1.65625q0.296875 0.734375 0.90625 1.1875q0.625 0.4375 1.5625 0.4375q0.9375 0 1.59375 -0.421875q0.671875 -0.4375 0.859375 -1.25l1.625 0q-0.171875 0.96875 -0.78125 1.640625q-0.609375 0.671875 -1.46875 1.015625q-0.84375 0.34375 -1.796875 0.34375zm-2.796875 -5.78125l5.25 0q0 -0.828125 -0.28125 -1.484375q-0.28125 -0.671875 -0.859375 -1.0625q-0.578125 -0.390625 -1.4375 -0.390625q-0.90625 0 -1.5 0.4375q-0.59375 0.4375 -0.890625 1.109375q-0.28125 0.671875 -0.28125 1.390625z" fill-rule="nonzero" />
		<path fill="#000000" d="m66.10629 28.688454l0 -1.578125l5.828125 -2.28125l-5.84375 -2.28125l0 -1.625l7.890625 3.125l0 1.578125l-7.875 3.0625z" fill-rule="nonzero" />
		<path fill="#1155cc" d="m9.0 32.495537l51.41658 0l0 1.6800003l-51.41658 0l0 -1.6800003z" fill-rule="nonzero" />
		<path fill="#000000" fill-opacity="0.0" d="m9.0 35.95876l38.8981 0l0 21.9211l-38.8981 0l0 -21.9211z" fill-rule="nonzero" />
		<path fill="#1155cc" d="m10.78125 53.6822l0 -13.484375l1.71875 0l0 13.484375l-1.71875 0zm8.373886 0.046875q-1.0 0 -1.5625 -0.265625q-0.546875 -0.28125 -0.765625 -0.8125q-0.21875 -0.53125 -0.21875 -1.296875l0 -6.0625l-1.5625 0l0 -1.25l1.609375 0l0.421875 -2.8125l1.265625 0l0 2.796875l2.171875 0l0 1.265625l-2.171875 0l0 6.0q0 0.515625 0.109375 0.75q0.109375 0.234375 0.359375 0.3125q0.25 0.0625 0.703125 0.0625l1.0625 0l0 1.15625q-0.171875 0.0625 -0.53125 0.109375q-0.359375 0.046875 -0.890625 0.046875zm7.5365295 0.140625q-1.34375 0 -2.375 -0.578125q-1.015625 -0.59375 -1.59375 -1.6875q-0.578125 -1.109375 -0.578125 -2.65625q0 -1.515625 0.515625 -2.65625q0.53125 -1.15625 1.515625 -1.796875q1.0 -0.640625 2.390625 -0.640625q1.375 0 2.3125 0.59375q0.9375 0.578125 1.421875 1.65625q0.5 1.0625 0.5 2.515625l0 0.640625l-6.90625 0q0 0.921875 0.296875 1.65625q0.296875 0.734375 0.90625 1.1875q0.625 0.4375 1.5625 0.4375q0.9375 0 1.59375 -0.421875q0.671875 -0.4375 0.859375 -1.25l1.625 0q-0.171875 0.96875 -0.78125 1.640625q-0.609375 0.671875 -1.46875 1.015625q-0.84375 0.34375 -1.796875 0.34375zm-2.796875 -5.78125l5.25 0q0 -0.828125 -0.28125 -1.484375q-0.28125 -0.671875 -0.859375 -1.0625q-0.578125 -0.390625 -1.4375 -0.390625q-0.90625 0 -1.5 0.4375q-0.59375 0.4375 -0.890625 1.109375q-0.28125 0.671875 -0.28125 1.390625zm9.287521 5.59375l0 -9.640625l1.671875 0l0 1.390625q0.390625 -0.625 1.09375 -1.09375q0.703125 -0.484375 1.8125 -0.484375q0.53125 0 1.078125 0.171875q0.546875 0.171875 1.0 0.53125q0.453125 0.359375 0.703125 0.875q0.453125 -0.71875 1.21875 -1.140625q0.765625 -0.4375 1.71875 -0.4375q0.515625 0 1.0625 0.15625q0.546875 0.140625 1.015625 0.53125q0.46875 0.390625 0.765625 1.078125q0.3125 0.6875 0.3125 1.75l0 6.3125l-1.734375 0l0 -6.140625q0 -0.875 -0.28125 -1.34375q-0.28125 -0.484375 -0.734375 -0.6875q-0.453125 -0.203125 -0.96875 -0.203125q-0.453125 0 -0.953125 0.1875q-0.5 0.171875 -0.859375 0.59375q-0.34375 0.421875 -0.34375 1.140625l0 6.453125l-1.71875 0l0 -6.640625q0 -0.5625 -0.3125 -0.9375q-0.296875 -0.390625 -0.75 -0.59375q-0.453125 -0.203125 -0.90625 -0.203125q-0.484375 0 -0.984375 0.203125q-0.5 0.203125 -0.84375 0.625q-0.34375 0.421875 -0.34375 1.09375l0 6.453125l-1.71875 0z" fill-rule="nonzero" />
		<path fill="#000000" d="m53.587814 51.08845l0 -1.578125l5.828125 -2.28125l-5.84375 -2.28125l0 -1.625l7.890625 3.125l0 1.578125l-7.875 3.0625z" fill-rule="nonzero" />
		<path fill="#1155cc" d="m9.0 54.895535l38.8981 0l0 1.6800003l-38.8981 0l0 -1.6800003z" fill-rule="nonzero" />
		<path fill="#000000" d="m15.359375 76.2697q-1.0 0 -1.890625 -0.234375q-0.875 -0.25 -1.609375 -0.71875q-0.71875 -0.46875 -1.1875 -1.171875q-0.46875 -0.71875 -0.59375 -1.640625l1.8125 0q0.171875 0.765625 0.671875 1.296875q0.5 0.515625 1.234375 0.78125q0.75 0.25 1.625 0.25q0.859375 0 1.578125 -0.265625q0.734375 -0.28125 1.171875 -0.796875q0.4375 -0.515625 0.4375 -1.234375q0 -0.8125 -0.53125 -1.296875q-0.515625 -0.484375 -1.609375 -0.796875l-2.78125 -0.71875q-0.9375 -0.21875 -1.671875 -0.640625q-0.71875 -0.4375 -1.125 -1.125q-0.40625 -0.703125 -0.40625 -1.734375q0 -1.140625 0.625 -2.0q0.640625 -0.859375 1.71875 -1.328125q1.09375 -0.46875 2.46875 -0.46875q1.578125 0 2.671875 0.546875q1.09375 0.546875 1.640625 1.453125q0.5625 0.890625 0.5625 1.90625l-1.765625 0q-0.09375 -0.921875 -0.546875 -1.453125q-0.453125 -0.546875 -1.140625 -0.78125q-0.671875 -0.234375 -1.484375 -0.234375q-1.4375 0 -2.1875 0.65625q-0.734375 0.65625 -0.734375 1.5625q0 0.828125 0.53125 1.3125q0.53125 0.46875 1.5625 0.734375l2.703125 0.703125q1.203125 0.265625 1.921875 0.8125q0.71875 0.53125 1.03125 1.234375q0.3125 0.703125 0.3125 1.515625q0 1.125 -0.625 2.0q-0.625 0.875 -1.75 1.375q-1.125 0.5 -2.640625 0.5zm11.10907 0q-0.75 -0.015625 -1.421875 -0.21875q-0.671875 -0.21875 -1.1875 -0.625q-0.5 -0.40625 -0.796875 -1.015625q-0.296875 -0.609375 -0.296875 -1.421875l0 -6.546875l1.734375 0l0 6.359375q0 0.953125 0.578125 1.546875q0.578125 0.578125 1.75 0.578125q1.078125 0 1.71875 -0.546875q0.65625 -0.5625 0.65625 -1.671875l0 -6.265625l1.703125 0l0 9.640625l-1.359375 0l-0.1875 -1.84375q-0.171875 0.71875 -0.59375 1.171875q-0.421875 0.453125 -1.015625 0.671875q-0.59375 0.203125 -1.28125 0.1875zm12.170044 0q-0.84375 0 -1.4375 -0.21875q-0.578125 -0.234375 -0.953125 -0.578125q-0.359375 -0.34375 -0.578125 -0.71875q-0.203125 -0.375 -0.296875 -0.65625l-0.171875 1.984375l-1.328125 0l0 -13.859375l1.734375 0l0 5.75q0.125 -0.25 0.375 -0.53125q0.25 -0.296875 0.640625 -0.5625q0.390625 -0.28125 0.921875 -0.453125q0.546875 -0.171875 1.234375 -0.171875q1.8125 0 2.875 1.265625q1.0625 1.25 1.0625 3.703125q0 1.515625 -0.453125 2.65625q-0.453125 1.125 -1.359375 1.765625q-0.90625 0.625 -2.265625 0.625zm-0.296875 -1.328125q1.171875 0 1.90625 -0.90625q0.734375 -0.90625 0.734375 -2.890625q0 -1.6875 -0.6875 -2.609375q-0.6875 -0.9375 -2.0 -0.9375q-0.953125 0 -1.546875 0.421875q-0.578125 0.40625 -0.859375 1.203125q-0.265625 0.78125 -0.28125 1.921875q0 2.015625 0.625 2.90625q0.640625 0.890625 2.109375 0.890625z" fill-rule="nonzero" />
	</g>
</svg>