<svg xmlns:xlink="http://www.w3.org/1999/xlink" xmlns="http://www.w3.org/2000/svg" version="1.1" viewBox="0.0 0.0 96.0 96.0" fill="none" stroke="none" stroke-linecap="square" stroke-miterlimit="10">
	<clipPath id="p.0">
		<path d="m0 0l96.0 0l0 96.0l-96.0 0l0 -96.0z" clip-rule="nonzero" />
	</clipPath>
	<g clip-path="url(#p.0)">
		<path fill="#000000" fill-opacity="0.0" d="m0 0l96.0 0l0 96.0l-96.0 0z" fill-rule="evenodd" />
		<path fill="#fe9339" d="m9.338583 11.641383l0 0c0 -1.7574062 1.4246588 -3.182066 3.182065 -3.182066l70.95871 0c0.8439331 0 1.653305 0.33525276 2.2500534 0.9320059c0.596756 0.5967531 0.93200684 1.4061241 0.93200684 2.25006l0 27.840591c0 1.7574081 -1.4246597 3.1820679 -3.1820602 3.1820679l-70.95871 0c-1.7574062 0 -3.182065 -1.4246597 -3.182065 -3.1820679z" fill-rule="evenodd" />
		<path fill="#666666" d="m13.855643 32.790028l8.362205 -14.456694l8.3622055 14.456694z" fill-rule="evenodd" />
		<path stroke="#666666" stroke-width="1.0" stroke-linejoin="round" stroke-linecap="butt" d="m13.855643 32.790028l8.362205 -14.456694l8.3622055 14.456694z" fill-rule="evenodd" />
		<path fill="#fe9339" d="m21.885817 28.371477l-0.28125 -2.90625l0 -1.34375l1.1875 0l0 1.34375l-0.28125 2.90625l-0.625 0zm-0.234375 1.484375l0 -1.09375l1.09375 0l0 1.09375l-1.09375 0z" fill-rule="nonzero" />
		<path fill="#fe9339" d="m9.338583 56.317238l0 0c0 -1.7574081 1.4246588 -3.1820679 3.182065 -3.1820679l70.95871 0c0.8439331 0 1.653305 0.33525467 2.2500534 0.93200684c0.596756 0.59675217 0.93200684 1.4061241 0.93200684 2.250061l0 27.840591c0 1.7574081 -1.4246597 3.1820679 -3.1820602 3.1820679l-70.95871 0c-1.7574062 0 -3.182065 -1.4246597 -3.182065 -3.1820679z" fill-rule="evenodd" />
		<path fill="#666666" d="m13.855643 77.46588l8.362205 -14.456696l8.3622055 14.456696z" fill-rule="evenodd" />
		<path stroke="#666666" stroke-width="1.0" stroke-linejoin="round" stroke-linecap="butt" d="m13.855643 77.46588l8.362205 -14.456696l8.3622055 14.456696z" fill-rule="evenodd" />
		<path fill="#fe9339" d="m21.885817 73.04733l-0.28125 -2.90625l0 -1.34375l1.1875 0l0 1.34375l-0.28125 2.90625l-0.625 0zm-0.234375 1.484375l0 -1.09375l1.09375 0l0 1.09375l-1.09375 0z" fill-rule="nonzero" />
		<path fill="#999999" d="m37.816273 13.0026245l39.68504 0l0 8.503937l-39.68504 0z" fill-rule="evenodd" />
		<path fill="#999999" d="m37.816273 24.75328l39.68504 0l0 5.259842l-39.68504 0z" fill-rule="evenodd" />
		<path fill="#999999" d="m37.816273 32.687664l39.68504 0l0 5.259842l-39.68504 0z" fill-rule="evenodd" />
		<path fill="#999999" d="m37.816273 57.766403l39.68504 0l0 8.503937l-39.68504 0z" fill-rule="evenodd" />
		<path fill="#999999" d="m37.816273 69.51706l39.68504 0l0 5.259842l-39.68504 0z" fill-rule="evenodd" />
		<path fill="#999999" d="m37.816273 77.45145l39.68504 0l0 5.259842l-39.68504 0z" fill-rule="evenodd" />
		<path fill="#ff00ff" d="m45.952755 48.14698l50.047245 0l0 48.0l-50.047245 0z" fill-rule="evenodd" />
		<path fill="#ffffff" d="m52.763275 83.18698l0 -21.9375l16.265625 0l0 3.703125l-11.84375 0l0 4.859375l11.015625 0l0 3.703125l-11.015625 0l0 5.96875l12.265625 0l0 3.703125l-16.6875 0zm18.213104 0l7.5 -11.453125l-6.796875 -10.484375l5.171875 0l4.40625 7.046875l4.3125 -7.046875l5.140625 0l-6.828125 10.65625l7.5 11.28125l-5.34375 0l-4.875 -7.59375l-4.875 7.59375l-5.3125 0z" fill-rule="nonzero" />
	</g>
</svg>